<svg width="24" height="24" viewBox="0 0 24 24" fill="none" xmlns="http://www.w3.org/2000/svg">
<path d="M17.9233 19.2308V17.5385C17.9233 16.6408 17.5667 15.7799 16.932 15.1452C16.2972 14.5104 15.4363 14.1538 14.5387 14.1538H9.46176C8.56411 14.1538 7.70322 14.5104 7.06848 15.1452C6.43374 15.7799 6.07715 16.6408 6.07715 17.5385V19.2308" stroke="#2C2C2C" stroke-width="1.69231" stroke-linecap="round" stroke-linejoin="round"/>
<path d="M11.9998 10.7692C13.8691 10.7692 15.3845 9.25389 15.3845 7.38462C15.3845 5.51534 13.8691 4 11.9998 4C10.1306 4 8.61523 5.51534 8.61523 7.38462C8.61523 9.25389 10.1306 10.7692 11.9998 10.7692Z" stroke="#2C2C2C" stroke-width="1.69231" stroke-linecap="round" stroke-linejoin="round"/>
<path d="M22.9994 19.2308V17.5385C22.9988 16.7885 22.7492 16.06 22.2898 15.4673C21.8303 14.8746 21.187 14.4513 20.4609 14.2638" stroke="#2C2C2C" stroke-width="1.69231" stroke-linecap="round" stroke-linejoin="round"/>
<path d="M17.9229 4.11C18.6509 4.29641 19.2962 4.71982 19.757 5.31349C20.2178 5.90716 20.4679 6.63732 20.4679 7.38885C20.4679 8.14038 20.2178 8.87053 19.757 9.4642C19.2962 10.0579 18.6509 10.4813 17.9229 10.6677" stroke="#2C2C2C" stroke-width="1.69231" stroke-linecap="round" stroke-linejoin="round"/>
<path d="M1.0006 19.2308V17.5385C1.00116 16.7885 1.25076 16.06 1.71021 15.4673C2.16967 14.8746 2.81295 14.4513 3.53906 14.2638" stroke="#2C2C2C" stroke-width="1.69231" stroke-linecap="round" stroke-linejoin="round"/>
<path d="M6.07715 4.11C5.34911 4.29641 4.70381 4.71982 4.24299 5.31349C3.78218 5.90716 3.53205 6.63732 3.53205 7.38885C3.53205 8.14038 3.78218 8.87053 4.24299 9.4642C4.70381 10.0579 5.34911 10.4813 6.07715 10.6677" stroke="#2C2C2C" stroke-width="1.69231" stroke-linecap="round" stroke-linejoin="round"/>
</svg>
