<svg width="24" height="24" viewBox="0 0 24 24" fill="none" xmlns="http://www.w3.org/2000/svg">
<path d="M18 18C19.6569 18 21 16.6569 21 15C21 13.3431 19.6569 12 18 12C16.3431 12 15 13.3431 15 15C15 16.6569 16.3431 18 18 18Z" stroke="#2C2C2C" stroke-width="2" stroke-linecap="round" stroke-linejoin="round"/>
<path d="M9 11C11.2091 11 13 9.20914 13 7C13 4.79086 11.2091 3 9 3C6.79086 3 5 4.79086 5 7C5 9.20914 6.79086 11 9 11Z" stroke="#2C2C2C" stroke-width="2" stroke-linecap="round" stroke-linejoin="round"/>
<path d="M10 15H6C4.93913 15 3.92172 15.4214 3.17157 16.1716C2.42143 16.9217 2 17.9391 2 19V21" stroke="#2C2C2C" stroke-width="2" stroke-linecap="round" stroke-linejoin="round"/>
<path d="M21.7008 16.4001L20.8008 16.1001" stroke="#2C2C2C" stroke-width="2" stroke-linecap="round" stroke-linejoin="round"/>
<path d="M15.2008 13.9001L14.3008 13.6001" stroke="#2C2C2C" stroke-width="2" stroke-linecap="round" stroke-linejoin="round"/>
<path d="M16.5996 18.6998L16.8996 17.7998" stroke="#2C2C2C" stroke-width="2" stroke-linecap="round" stroke-linejoin="round"/>
<path d="M19.0996 12.1998L19.3996 11.2998" stroke="#2C2C2C" stroke-width="2" stroke-linecap="round" stroke-linejoin="round"/>
<path d="M19.5992 18.7002L19.1992 17.7002" stroke="#2C2C2C" stroke-width="2" stroke-linecap="round" stroke-linejoin="round"/>
<path d="M16.8004 12.2998L16.4004 11.2998" stroke="#2C2C2C" stroke-width="2" stroke-linecap="round" stroke-linejoin="round"/>
<path d="M14.3008 16.6002L15.3008 16.2002" stroke="#2C2C2C" stroke-width="2" stroke-linecap="round" stroke-linejoin="round"/>
<path d="M20.6992 13.7999L21.6992 13.3999" stroke="#2C2C2C" stroke-width="2" stroke-linecap="round" stroke-linejoin="round"/>
</svg>
