<svg width="24" height="24" viewBox="0 0 24 24" fill="none" xmlns="http://www.w3.org/2000/svg">
<g clip-path="url(#clip0_1_3626)">
<path d="M17.9233 23.2308V21.5385C17.9233 20.6408 17.5667 19.7799 16.932 19.1452C16.2972 18.5104 15.4363 18.1538 14.5387 18.1538H9.46176C8.56411 18.1538 7.70322 18.5104 7.06848 19.1452C6.43374 19.7799 6.07715 20.6408 6.07715 21.5385V23.2308" stroke="#2C2C2C" stroke-width="1.69231" stroke-linecap="round" stroke-linejoin="round"/>
<path d="M12.0008 14.7692C13.8701 14.7692 15.3854 13.2539 15.3854 11.3846C15.3854 9.51534 13.8701 8 12.0008 8C10.1316 8 8.61621 9.51534 8.61621 11.3846C8.61621 13.2539 10.1316 14.7692 12.0008 14.7692Z" stroke="#2C2C2C" stroke-width="1.69231" stroke-linecap="round" stroke-linejoin="round"/>
<path d="M23.0014 23.2308V21.5385C23.0008 20.7885 22.7512 20.06 22.2917 19.4674C21.8323 18.8747 21.189 18.4513 20.4629 18.2639" stroke="#2C2C2C" stroke-width="1.69231" stroke-linecap="round" stroke-linejoin="round"/>
<path d="M17.9248 8.11002C18.6528 8.29642 19.2981 8.71984 19.759 9.31351C20.2198 9.90718 20.4699 10.6373 20.4699 11.3889C20.4699 12.1404 20.2198 12.8705 19.759 13.4642C19.2981 14.0579 18.6528 14.4813 17.9248 14.6677" stroke="#2C2C2C" stroke-width="1.69231" stroke-linecap="round" stroke-linejoin="round"/>
<path d="M1.0006 23.2308V21.5385C1.00116 20.7885 1.25076 20.06 1.71021 19.4674C2.16967 18.8747 2.81295 18.4513 3.53906 18.2639" stroke="#2C2C2C" stroke-width="1.69231" stroke-linecap="round" stroke-linejoin="round"/>
<path d="M6.07715 8.11002C5.34911 8.29642 4.70381 8.71984 4.24299 9.31351C3.78218 9.90718 3.53205 10.6373 3.53205 11.3889C3.53205 12.1404 3.78218 12.8705 4.24299 13.4642C4.70381 14.0579 5.34911 14.4813 6.07715 14.6677" stroke="#2C2C2C" stroke-width="1.69231" stroke-linecap="round" stroke-linejoin="round"/>
<path d="M11.8694 1.07767C11.8824 1.05415 11.9014 1.03453 11.9245 1.02087C11.9476 1.00721 11.974 1 12.0008 1C12.0277 1 12.054 1.00721 12.0772 1.02087C12.1003 1.03453 12.1193 1.05415 12.1323 1.07767L13.018 2.75921C13.0392 2.79814 13.0686 2.83192 13.1044 2.85811C13.1401 2.8843 13.1812 2.90226 13.2247 2.91069C13.2681 2.91913 13.313 2.91783 13.3559 2.90689C13.3988 2.89595 13.4388 2.87564 13.4729 2.84742L14.7563 1.748C14.7809 1.72797 14.8113 1.71626 14.843 1.71458C14.8747 1.71289 14.9061 1.72131 14.9327 1.73863C14.9594 1.75594 14.9798 1.78125 14.9911 1.81092C15.0024 1.84059 15.0041 1.87309 14.9957 1.90373L14.1454 4.97815C14.128 5.04106 14.0906 5.0966 14.0388 5.13635C13.9871 5.17609 13.9238 5.19787 13.8585 5.1984H10.1435C10.0781 5.19794 10.0148 5.17619 9.96294 5.13644C9.91111 5.09669 9.87367 5.04111 9.8563 4.97815L9.00623 1.90403C8.9979 1.87339 8.99951 1.84089 9.01083 1.81122C9.02215 1.78155 9.04259 1.75624 9.06921 1.73893C9.09583 1.72161 9.12726 1.71319 9.15897 1.71488C9.19068 1.71656 9.22104 1.72827 9.24567 1.7483L10.5287 2.84772C10.5629 2.87594 10.6028 2.89625 10.6458 2.90719C10.6887 2.91813 10.7335 2.91943 10.777 2.91099C10.8205 2.90256 10.8616 2.8846 10.8973 2.85841C10.933 2.83222 10.9625 2.79844 10.9836 2.75951L11.8694 1.07767Z" stroke="#2C2C2C" stroke-linecap="round" stroke-linejoin="round"/>
</g>
<defs>
<clipPath id="clip0_1_3626">
<rect width="24" height="24" fill="white"/>
</clipPath>
</defs>
</svg>
