<svg width="20" height="20" viewBox="0 0 20 20" fill="none" xmlns="http://www.w3.org/2000/svg">
<g id="Frame">
<path id="Vector" d="M9.16797 14.1673L10.8346 15.834C10.9988 15.9981 11.1937 16.1283 11.4081 16.2172C11.6226 16.306 11.8525 16.3518 12.0846 16.3518C12.3168 16.3518 12.5467 16.306 12.7611 16.2172C12.9756 16.1283 13.1705 15.9981 13.3346 15.834C13.4988 15.6698 13.629 15.475 13.7178 15.2605C13.8067 15.046 13.8524 14.8161 13.8524 14.584C13.8524 14.3518 13.8067 14.122 13.7178 13.9075C13.629 13.693 13.4988 13.4981 13.3346 13.334" stroke="#2C2C2C" stroke-width="1.66667" stroke-linecap="round" stroke-linejoin="round"/>
<path id="Vector_2" d="M11.6649 11.6671L13.7482 13.7504C14.0798 14.0819 14.5294 14.2682 14.9982 14.2682C15.4671 14.2682 15.9167 14.0819 16.2482 13.7504C16.5798 13.4189 16.766 12.9693 16.766 12.5004C16.766 12.0316 16.5798 11.5819 16.2482 11.2504L13.0149 8.01709C12.5462 7.54892 11.9107 7.28595 11.2482 7.28595C10.5857 7.28595 9.95032 7.54892 9.48157 8.01709L8.74824 8.75042C8.41671 9.08194 7.96708 9.26819 7.49824 9.26819C7.02939 9.26819 6.57976 9.08194 6.24824 8.75042C5.91672 8.4189 5.73047 7.96926 5.73047 7.50042C5.73047 7.03158 5.91672 6.58194 6.24824 6.25042L8.5899 3.90875C9.3501 3.15054 10.3415 2.66755 11.4071 2.53623C12.4727 2.40491 13.5517 2.63278 14.4732 3.18375L14.8649 3.41709C15.2197 3.63124 15.6416 3.70552 16.0482 3.62542L17.4982 3.33375" stroke="#2C2C2C" stroke-width="1.66667" stroke-linecap="round" stroke-linejoin="round"/>
<path id="Vector_3" d="M17.5013 2.5L18.3346 11.6667H16.668" stroke="#2C2C2C" stroke-width="1.66667" stroke-linecap="round" stroke-linejoin="round"/>
<path id="Vector_4" d="M2.5013 2.5L1.66797 11.6667L7.08464 17.0833C7.41616 17.4149 7.86579 17.6011 8.33464 17.6011C8.80348 17.6011 9.25311 17.4149 9.58464 17.0833C9.91616 16.7518 10.1024 16.3022 10.1024 15.8333C10.1024 15.3645 9.91616 14.9149 9.58464 14.5833" stroke="#2C2C2C" stroke-width="1.66667" stroke-linecap="round" stroke-linejoin="round"/>
<path id="Vector_5" d="M2.5 3.33398H9.16667" stroke="#2C2C2C" stroke-width="1.66667" stroke-linecap="round" stroke-linejoin="round"/>
</g>
</svg>
