<svg width="20" height="20" viewBox="0 0 20 20" fill="none" xmlns="http://www.w3.org/2000/svg">
<g id="Frame">
<path id="Vector" d="M11.6654 17.5V14.1667C11.6654 13.7246 11.4898 13.3007 11.1772 12.9882C10.8646 12.6756 10.4407 12.5 9.9987 12.5C9.55667 12.5 9.13275 12.6756 8.82019 12.9882C8.50763 13.3007 8.33203 13.7246 8.33203 14.1667V17.5" stroke="#2C2C2C" stroke-width="1.66667" stroke-linecap="round" stroke-linejoin="round"/>
<path id="Vector_2" d="M15.0013 7.5L17.8738 8.93667C18.0122 9.00583 18.1286 9.11215 18.21 9.24373C18.2914 9.37531 18.3346 9.52695 18.3346 9.68167V15.8333C18.3346 16.2754 18.159 16.6993 17.8465 17.0118C17.5339 17.3244 17.11 17.5 16.668 17.5H3.33464C2.89261 17.5 2.46868 17.3244 2.15612 17.0118C1.84356 16.6993 1.66797 16.2754 1.66797 15.8333V9.68167C1.66805 9.52695 1.7112 9.37531 1.7926 9.24373C1.87399 9.11215 1.9904 9.00583 2.1288 8.93667L5.0013 7.5" stroke="#2C2C2C" stroke-width="1.66667" stroke-linecap="round" stroke-linejoin="round"/>
<path id="Vector_3" d="M15 2.5V17.5" stroke="#2C2C2C" stroke-width="1.66667" stroke-linecap="round" stroke-linejoin="round"/>
<path id="Vector_4" d="M5 2.5L10 2.5L15 2.5" stroke="#2C2C2C" stroke-width="1.66667" stroke-linecap="round" stroke-linejoin="round"/>
<path id="Vector_5" d="M5 2.5V17.5" stroke="#2C2C2C" stroke-width="1.66667" stroke-linecap="round" stroke-linejoin="round"/>
<path id="Vector_6" d="M9.9987 9.16732C10.9192 9.16732 11.6654 8.42113 11.6654 7.50065C11.6654 6.58018 10.9192 5.83398 9.9987 5.83398C9.07822 5.83398 8.33203 6.58018 8.33203 7.50065C8.33203 8.42113 9.07822 9.16732 9.9987 9.16732Z" stroke="#2C2C2C" stroke-width="1.66667" stroke-linecap="round" stroke-linejoin="round"/>
</g>
</svg>
