<svg width="20" height="20" viewBox="0 0 20 20" fill="none" xmlns="http://www.w3.org/2000/svg">
<g id="Frame">
<path id="Vector" d="M7.5 2.5H3.33333C2.8731 2.5 2.5 2.8731 2.5 3.33333V9.16667C2.5 9.6269 2.8731 10 3.33333 10H7.5C7.96024 10 8.33333 9.6269 8.33333 9.16667V3.33333C8.33333 2.8731 7.96024 2.5 7.5 2.5Z" stroke="#2C2C2C" stroke-width="1.66667" stroke-linecap="round" stroke-linejoin="round"/>
<path id="Vector_2" d="M16.668 2.5H12.5013C12.0411 2.5 11.668 2.8731 11.668 3.33333V5.83333C11.668 6.29357 12.0411 6.66667 12.5013 6.66667H16.668C17.1282 6.66667 17.5013 6.29357 17.5013 5.83333V3.33333C17.5013 2.8731 17.1282 2.5 16.668 2.5Z" stroke="#2C2C2C" stroke-width="1.66667" stroke-linecap="round" stroke-linejoin="round"/>
<path id="Vector_3" d="M16.668 10H12.5013C12.0411 10 11.668 10.3731 11.668 10.8333V16.6667C11.668 17.1269 12.0411 17.5 12.5013 17.5H16.668C17.1282 17.5 17.5013 17.1269 17.5013 16.6667V10.8333C17.5013 10.3731 17.1282 10 16.668 10Z" stroke="#2C2C2C" stroke-width="1.66667" stroke-linecap="round" stroke-linejoin="round"/>
<path id="Vector_4" d="M7.5 13.334H3.33333C2.8731 13.334 2.5 13.7071 2.5 14.1673V16.6673C2.5 17.1276 2.8731 17.5007 3.33333 17.5007H7.5C7.96024 17.5007 8.33333 17.1276 8.33333 16.6673V14.1673C8.33333 13.7071 7.96024 13.334 7.5 13.334Z" stroke="#2C2C2C" stroke-width="1.66667" stroke-linecap="round" stroke-linejoin="round"/>
</g>
</svg>
