<svg width="20" height="20" viewBox="0 0 20 20" fill="none" xmlns="http://www.w3.org/2000/svg">
<g id="Frame" clip-path="url(#clip0_3303_1534)">
<path id="Vector" d="M9.16667 13.3333H10.8333C11.2754 13.3333 11.6993 13.1577 12.0118 12.8452C12.3244 12.5326 12.5 12.1087 12.5 11.6667C12.5 11.2246 12.3244 10.8007 12.0118 10.4882C11.6993 10.1756 11.2754 10 10.8333 10H8.33333C7.83333 10 7.41667 10.1667 7.16667 10.5L2.5 15" stroke="#2C2C2C" stroke-width="1.66667" stroke-linecap="round" stroke-linejoin="round"/>
<path id="Vector_2" d="M5.83203 18.3332L7.16536 17.1666C7.41536 16.8332 7.83203 16.6666 8.33203 16.6666H11.6654C12.582 16.6666 13.4154 16.3332 13.9987 15.6666L17.832 11.9999C18.1536 11.696 18.3413 11.2768 18.3538 10.8345C18.3663 10.3923 18.2026 9.96314 17.8987 9.64157C17.5948 9.31999 17.1756 9.13231 16.7333 9.11981C16.2911 9.10731 15.8619 9.27101 15.5404 9.5749L12.0404 12.8249" stroke="#2C2C2C" stroke-width="1.66667" stroke-linecap="round" stroke-linejoin="round"/>
<path id="Vector_3" d="M1.66797 14.166L6.66797 19.166" stroke="#2C2C2C" stroke-width="1.66667" stroke-linecap="round" stroke-linejoin="round"/>
<g id="Group 1000006402">
<path id="Vector_4" d="M10 3.16732L9.25 2.83398" stroke="#2C2C2C" stroke-width="1.66667" stroke-linecap="round" stroke-linejoin="round"/>
<path id="Vector_5" d="M10 5L9.25 5.33333" stroke="#2C2C2C" stroke-width="1.66667" stroke-linecap="round" stroke-linejoin="round"/>
<path id="Vector_6" d="M11.4154 1.75L11.082 1" stroke="#2C2C2C" stroke-width="1.66667" stroke-linecap="round" stroke-linejoin="round"/>
<path id="Vector_7" d="M11.4154 6.41602L11.082 7.16602" stroke="#2C2C2C" stroke-width="1.66667" stroke-linecap="round" stroke-linejoin="round"/>
<path id="Vector_8" d="M13.5833 1L13.25 1.75" stroke="#2C2C2C" stroke-width="1.66667" stroke-linecap="round" stroke-linejoin="round"/>
<path id="Vector_9" d="M13.5833 7.16602L13.25 6.41602" stroke="#2C2C2C" stroke-width="1.66667" stroke-linecap="round" stroke-linejoin="round"/>
<path id="Vector_10" d="M15.418 2.83398L14.668 3.16732" stroke="#2C2C2C" stroke-width="1.66667" stroke-linecap="round" stroke-linejoin="round"/>
<path id="Vector_11" d="M15.418 5.33333L14.668 5" stroke="#2C2C2C" stroke-width="1.66667" stroke-linecap="round" stroke-linejoin="round"/>
<path id="Vector_12" d="M12.332 6.58398C13.7127 6.58398 14.832 5.4647 14.832 4.08398C14.832 2.70327 13.7127 1.58398 12.332 1.58398C10.9513 1.58398 9.83203 2.70327 9.83203 4.08398C9.83203 5.4647 10.9513 6.58398 12.332 6.58398Z" stroke="#2C2C2C" stroke-width="1.66667" stroke-linecap="round" stroke-linejoin="round"/>
</g>
</g>
<defs>
<clipPath id="clip0_3303_1534">
<rect width="20" height="20" fill="white"/>
</clipPath>
</defs>
</svg>
