<svg width="20" height="20" viewBox="0 0 20 20" fill="none" xmlns="http://www.w3.org/2000/svg">
<g id="Frame">
<path id="Vector" d="M12.4987 1.66602H4.9987C4.55667 1.66602 4.13275 1.84161 3.82019 2.15417C3.50763 2.46673 3.33203 2.89065 3.33203 3.33268V16.666C3.33203 17.108 3.50763 17.532 3.82019 17.8445C4.13275 18.1571 4.55667 18.3327 4.9987 18.3327H14.9987C15.4407 18.3327 15.8646 18.1571 16.1772 17.8445C16.4898 17.532 16.6654 17.108 16.6654 16.666V5.83268L12.4987 1.66602Z" stroke="#2C2C2C" stroke-width="1.66667" stroke-linecap="round" stroke-linejoin="round"/>
<path id="Vector_2" d="M11.668 1.66602V4.99935C11.668 5.44138 11.8436 5.8653 12.1561 6.17786C12.4687 6.49042 12.8926 6.66602 13.3346 6.66602H16.668" stroke="#2C2C2C" stroke-width="1.66667" stroke-linecap="round" stroke-linejoin="round"/>
<path id="Vector_3" d="M8.33464 7.5H6.66797" stroke="#2C2C2C" stroke-width="1.66667" stroke-linecap="round" stroke-linejoin="round"/>
<path id="Vector_4" d="M13.3346 10.834H6.66797" stroke="#2C2C2C" stroke-width="1.66667" stroke-linecap="round" stroke-linejoin="round"/>
<path id="Vector_5" d="M13.3346 14.166H6.66797" stroke="#2C2C2C" stroke-width="1.66667" stroke-linecap="round" stroke-linejoin="round"/>
</g>
</svg>
