<svg width="76" height="26" viewBox="0 0 76 26" fill="none" xmlns="http://www.w3.org/2000/svg">
<rect width="76" height="26" rx="4" fill="#FFDB7A"/>
<path d="M13 13.584V18.2507" stroke="#2C2C2C" stroke-width="1.16667" stroke-linecap="round" stroke-linejoin="round"/>
<path d="M8.33312 14.6915C7.89973 14.2487 7.57279 13.7131 7.37706 13.1252C7.18133 12.5373 7.12195 11.9126 7.20342 11.2984C7.28488 10.6842 7.50506 10.0966 7.84726 9.58004C8.18947 9.06352 8.64473 8.63165 9.17857 8.31714C9.7124 8.00262 10.3108 7.81372 10.9285 7.76474C11.5461 7.71575 12.1668 7.80797 12.7436 8.0344C13.3203 8.26083 13.838 8.61555 14.2573 9.07167C14.6766 9.52779 14.9867 10.0734 15.164 10.6671H16.2081C16.7713 10.667 17.3196 10.8481 17.772 11.1836C18.2244 11.5191 18.5569 11.9912 18.7204 12.5301C18.8839 13.0691 18.8697 13.6463 18.6799 14.1766C18.4901 14.7069 18.1348 15.1621 17.6665 15.4749" stroke="#2C2C2C" stroke-width="1.16667" stroke-linecap="round" stroke-linejoin="round"/>
<path d="M10.668 15.9173L13.0013 13.584L15.3346 15.9173" stroke="#2C2C2C" stroke-width="1.16667" stroke-linecap="round" stroke-linejoin="round"/>
<path d="M28.256 8.66V13.976C28.256 14.608 28.42 15.084 28.748 15.404C29.084 15.724 29.548 15.884 30.14 15.884C30.74 15.884 31.204 15.724 31.532 15.404C31.868 15.084 32.036 14.608 32.036 13.976V8.66H33.404V13.952C33.404 14.632 33.256 15.208 32.96 15.68C32.664 16.152 32.268 16.504 31.772 16.736C31.276 16.968 30.728 17.084 30.128 17.084C29.528 17.084 28.98 16.968 28.484 16.736C27.996 16.504 27.608 16.152 27.32 15.68C27.032 15.208 26.888 14.632 26.888 13.952V8.66H28.256ZM36.5532 11.36C36.7852 11.056 37.1012 10.8 37.5012 10.592C37.9012 10.384 38.3532 10.28 38.8572 10.28C39.4332 10.28 39.9572 10.424 40.4292 10.712C40.9092 10.992 41.2852 11.388 41.5572 11.9C41.8292 12.412 41.9652 13 41.9652 13.664C41.9652 14.328 41.8292 14.924 41.5572 15.452C41.2852 15.972 40.9092 16.38 40.4292 16.676C39.9572 16.964 39.4332 17.108 38.8572 17.108C38.3532 17.108 37.9052 17.008 37.5132 16.808C37.1212 16.6 36.8012 16.344 36.5532 16.04V20.144H35.1852V10.388H36.5532V11.36ZM40.5732 13.664C40.5732 13.208 40.4772 12.816 40.2852 12.488C40.1012 12.152 39.8532 11.9 39.5412 11.732C39.2372 11.556 38.9092 11.468 38.5572 11.468C38.2132 11.468 37.8852 11.556 37.5732 11.732C37.2692 11.908 37.0212 12.164 36.8292 12.5C36.6452 12.836 36.5532 13.232 36.5532 13.688C36.5532 14.144 36.6452 14.544 36.8292 14.888C37.0212 15.224 37.2692 15.48 37.5732 15.656C37.8852 15.832 38.2132 15.92 38.5572 15.92C38.9092 15.92 39.2372 15.832 39.5412 15.656C39.8532 15.472 40.1012 15.208 40.2852 14.864C40.4772 14.52 40.5732 14.12 40.5732 13.664ZM44.686 8.12V17H43.318V8.12H44.686ZM49.35 17.108C48.726 17.108 48.162 16.968 47.658 16.688C47.154 16.4 46.758 16 46.47 15.488C46.182 14.968 46.038 14.368 46.038 13.688C46.038 13.016 46.186 12.42 46.482 11.9C46.778 11.38 47.182 10.98 47.694 10.7C48.206 10.42 48.778 10.28 49.41 10.28C50.042 10.28 50.614 10.42 51.126 10.7C51.638 10.98 52.042 11.38 52.338 11.9C52.634 12.42 52.782 13.016 52.782 13.688C52.782 14.36 52.63 14.956 52.326 15.476C52.022 15.996 51.606 16.4 51.078 16.688C50.558 16.968 49.982 17.108 49.35 17.108ZM49.35 15.92C49.702 15.92 50.03 15.836 50.334 15.668C50.646 15.5 50.898 15.248 51.09 14.912C51.282 14.576 51.378 14.168 51.378 13.688C51.378 13.208 51.286 12.804 51.102 12.476C50.918 12.14 50.674 11.888 50.37 11.72C50.066 11.552 49.738 11.468 49.386 11.468C49.034 11.468 48.706 11.552 48.402 11.72C48.106 11.888 47.87 12.14 47.694 12.476C47.518 12.804 47.43 13.208 47.43 13.688C47.43 14.4 47.61 14.952 47.97 15.344C48.338 15.728 48.798 15.92 49.35 15.92ZM53.6784 13.664C53.6784 13 53.8144 12.412 54.0864 11.9C54.3664 11.388 54.7424 10.992 55.2144 10.712C55.6944 10.424 56.2224 10.28 56.7984 10.28C57.3184 10.28 57.7704 10.384 58.1544 10.592C58.5464 10.792 58.8584 11.044 59.0904 11.348V10.388H60.4704V17H59.0904V16.016C58.8584 16.328 58.5424 16.588 58.1424 16.796C57.7424 17.004 57.2864 17.108 56.7744 17.108C56.2064 17.108 55.6864 16.964 55.2144 16.676C54.7424 16.38 54.3664 15.972 54.0864 15.452C53.8144 14.924 53.6784 14.328 53.6784 13.664ZM59.0904 13.688C59.0904 13.232 58.9944 12.836 58.8024 12.5C58.6184 12.164 58.3744 11.908 58.0704 11.732C57.7664 11.556 57.4384 11.468 57.0864 11.468C56.7344 11.468 56.4064 11.556 56.1024 11.732C55.7984 11.9 55.5504 12.152 55.3584 12.488C55.1744 12.816 55.0824 13.208 55.0824 13.664C55.0824 14.12 55.1744 14.52 55.3584 14.864C55.5504 15.208 55.7984 15.472 56.1024 15.656C56.4144 15.832 56.7424 15.92 57.0864 15.92C57.4384 15.92 57.7664 15.832 58.0704 15.656C58.3744 15.48 58.6184 15.224 58.8024 14.888C58.9944 14.544 59.0904 14.144 59.0904 13.688ZM61.8112 13.664C61.8112 13 61.9472 12.412 62.2192 11.9C62.4992 11.388 62.8752 10.992 63.3472 10.712C63.8272 10.424 64.3592 10.28 64.9432 10.28C65.3752 10.28 65.7992 10.376 66.2152 10.568C66.6392 10.752 66.9752 11 67.2232 11.312V8.12H68.6032V17H67.2232V16.004C66.9992 16.324 66.6872 16.588 66.2872 16.796C65.8952 17.004 65.4432 17.108 64.9312 17.108C64.3552 17.108 63.8272 16.964 63.3472 16.676C62.8752 16.38 62.4992 15.972 62.2192 15.452C61.9472 14.924 61.8112 14.328 61.8112 13.664ZM67.2232 13.688C67.2232 13.232 67.1272 12.836 66.9352 12.5C66.7512 12.164 66.5072 11.908 66.2032 11.732C65.8992 11.556 65.5712 11.468 65.2192 11.468C64.8672 11.468 64.5392 11.556 64.2352 11.732C63.9312 11.9 63.6832 12.152 63.4912 12.488C63.3072 12.816 63.2152 13.208 63.2152 13.664C63.2152 14.12 63.3072 14.52 63.4912 14.864C63.6832 15.208 63.9312 15.472 64.2352 15.656C64.5472 15.832 64.8752 15.92 65.2192 15.92C65.5712 15.92 65.8992 15.832 66.2032 15.656C66.5072 15.48 66.7512 15.224 66.9352 14.888C67.1272 14.544 67.2232 14.144 67.2232 13.688Z" fill="#2C2C2C"/>
</svg>
