<svg width="406" height="350" viewBox="0 0 406 350" fill="none" xmlns="http://www.w3.org/2000/svg">
<rect width="406" height="350" rx="8" transform="matrix(1 0 0 -1 0 350)" fill="white"/>
<path d="M241.938 60.4364C242.649 58.3448 241.531 56.0662 239.418 55.4226C213.301 47.4682 185.256 48.2739 159.586 57.7814C133.915 67.289 112.112 84.9458 97.4771 107.993C96.2929 109.858 96.9287 112.315 98.8305 113.439L129.608 131.628C131.51 132.752 133.955 132.115 135.171 130.27C144.67 115.864 158.534 104.825 174.781 98.8079C191.027 92.7906 208.737 92.1358 225.329 96.8783C227.453 97.4855 229.723 96.3764 230.434 94.2847L241.938 60.4364Z" fill="#FFB900"/>
<path d="M82.6277 162.691C80.43 162.467 78.4596 164.066 78.3053 166.27C77.5386 177.219 78.2176 188.222 80.3246 198.994C80.7486 201.162 82.9007 202.507 85.0541 202.014L119.902 194.033C122.055 193.539 123.391 191.395 123.004 189.22C121.919 183.118 121.536 176.912 121.863 170.723C121.979 168.516 120.39 166.553 118.192 166.328L82.6277 162.691Z" fill="#717171"/>
<path d="M95.8793 118.731C93.9236 117.704 91.4992 118.454 90.5349 120.442C85.7441 130.317 82.2749 140.781 80.2169 151.563C79.8027 153.733 81.2988 155.783 83.4809 156.127L118.793 161.703C120.975 162.048 123.014 160.556 123.465 158.393C124.732 152.326 126.689 146.424 129.298 140.802C130.227 138.798 129.484 136.384 127.529 135.356L95.8793 118.731Z" fill="#2C2C2C"/>
<path d="M86.6181 208.11C84.4932 208.714 83.2545 210.929 83.9266 213.033C87.5861 224.49 92.8801 235.359 99.6446 245.304C100.887 247.131 103.395 247.521 105.181 246.221L134.082 225.178C135.868 223.878 136.252 221.381 135.042 219.533C131.271 213.779 128.246 207.568 126.04 201.052C125.331 198.959 123.128 197.723 121.004 198.327L86.6181 208.11Z" fill="#ACACAC"/>
<path d="M109.108 251.324C107.394 252.718 107.129 255.241 108.577 256.91C116.458 265.995 125.61 273.896 135.748 280.367C137.61 281.555 140.068 280.925 141.196 279.026L159.457 248.291C160.585 246.391 159.954 243.945 158.112 242.725C152.378 238.924 147.149 234.41 142.551 229.291C141.075 227.648 138.563 227.38 136.849 228.774L109.108 251.324Z" fill="#DADADA"/>
<path d="M229.755 293.005C230.243 295.159 232.388 296.516 234.525 295.959C245.073 293.21 255.215 289.094 264.695 283.714C266.616 282.624 267.208 280.156 266.057 278.271L247.426 247.759C246.275 245.873 243.818 245.288 241.878 246.345C236.48 249.286 230.765 251.606 224.843 253.259C222.715 253.853 221.361 255.985 221.85 258.14L229.755 293.005Z" fill="#006FB6"/>
<path d="M187.054 294.945C186.763 297.134 188.301 299.152 190.499 299.373C200.167 300.345 209.915 300.186 219.546 298.9C221.736 298.608 223.208 296.541 222.846 294.361L216.982 259.096C216.62 256.916 214.56 255.454 212.366 255.708C207.022 256.328 201.63 256.416 196.269 255.971C194.067 255.788 192.056 257.317 191.765 259.506L187.054 294.945Z" fill="#3CAAF0"/>
<path d="M146.831 282.173C145.805 284.13 146.558 286.553 148.546 287.516C157.243 291.725 166.399 294.911 175.83 297.011C177.986 297.492 180.081 296.059 180.492 293.888L187.142 258.762C187.553 256.591 186.123 254.509 183.976 253.991C178.78 252.74 173.72 250.979 168.87 248.734C166.866 247.806 164.452 248.551 163.426 250.508L146.831 282.173Z" fill="#9CD8FF"/>
<path d="M271.329 274.86C272.577 276.683 275.071 277.155 276.853 275.85C287.973 267.707 297.67 257.78 305.551 246.472C306.814 244.66 306.284 242.178 304.432 240.974L274.464 221.481C272.612 220.277 270.142 220.808 268.848 222.599C264.15 229.098 258.515 234.867 252.127 239.716C250.367 241.052 249.894 243.533 251.141 245.356L271.329 274.86Z" fill="#3F4D6F"/>
<path d="M303.67 107.869C305.508 106.643 306.009 104.155 304.726 102.358C291.681 84.0908 273.957 69.672 253.418 60.6188C251.396 59.7277 249.062 60.7251 248.236 62.7741L234.871 95.9317C234.045 97.9807 235.042 100.302 237.048 101.228C249.433 106.944 260.181 115.688 268.298 126.65C269.613 128.426 272.089 128.929 273.927 127.703L303.67 107.869Z" fill="#FFDB7A"/>
<path d="M324 175C326.209 175 328.007 173.209 327.936 171.001C327.328 151.989 322.388 133.366 313.494 116.552C312.461 114.599 310.012 113.934 308.093 115.029L277.043 132.748C275.124 133.843 274.466 136.282 275.465 138.252C280.63 148.436 283.59 159.596 284.152 171.002C284.26 173.208 286.041 175 288.25 175L324 175Z" fill="#FFEBB6"/>
<path d="M306.999 236.849C308.898 237.978 311.358 237.357 312.426 235.423C321.007 219.882 326.18 202.691 327.6 184.995C327.776 182.793 326.067 180.917 323.86 180.811L288.152 179.094C285.945 178.988 284.08 180.692 283.866 182.891C282.837 193.437 279.755 203.681 274.793 213.044C273.759 214.996 274.373 217.446 276.272 218.575L306.999 236.849Z" fill="#FFF6DF"/>
<rect x="175" y="107" width="28" height="18" rx="4" fill="#2C2C2C"/>
<path d="M181.722 118.83C182.618 118.055 183.323 117.421 183.836 116.926C184.359 116.422 184.793 115.899 185.138 115.358C185.483 114.817 185.656 114.275 185.656 113.734C185.656 113.174 185.521 112.735 185.25 112.418C184.989 112.101 184.573 111.942 184.004 111.942C183.453 111.942 183.024 112.119 182.716 112.474C182.417 112.819 182.259 113.286 182.24 113.874H180.7C180.728 112.81 181.045 111.998 181.652 111.438C182.268 110.869 183.047 110.584 183.99 110.584C185.007 110.584 185.801 110.864 186.37 111.424C186.949 111.984 187.238 112.731 187.238 113.664C187.238 114.336 187.065 114.985 186.72 115.61C186.384 116.226 185.978 116.781 185.502 117.276C185.035 117.761 184.438 118.326 183.71 118.97L183.08 119.53H187.518V120.86H180.714V119.698L181.722 118.83ZM190.642 115.666C189.671 115.181 189.186 114.415 189.186 113.37C189.186 112.866 189.312 112.404 189.564 111.984C189.816 111.564 190.194 111.233 190.698 110.99C191.202 110.738 191.818 110.612 192.546 110.612C193.265 110.612 193.876 110.738 194.38 110.99C194.893 111.233 195.276 111.564 195.528 111.984C195.78 112.404 195.906 112.866 195.906 113.37C195.906 113.893 195.771 114.355 195.5 114.756C195.239 115.148 194.889 115.451 194.45 115.666C194.982 115.862 195.402 116.184 195.71 116.632C196.018 117.071 196.172 117.589 196.172 118.186C196.172 118.793 196.018 119.329 195.71 119.796C195.402 120.263 194.973 120.622 194.422 120.874C193.871 121.126 193.246 121.252 192.546 121.252C191.846 121.252 191.221 121.126 190.67 120.874C190.129 120.622 189.704 120.263 189.396 119.796C189.088 119.329 188.934 118.793 188.934 118.186C188.934 117.579 189.088 117.057 189.396 116.618C189.704 116.179 190.119 115.862 190.642 115.666ZM194.38 113.566C194.38 113.043 194.217 112.642 193.89 112.362C193.563 112.082 193.115 111.942 192.546 111.942C191.986 111.942 191.543 112.082 191.216 112.362C190.889 112.642 190.726 113.048 190.726 113.58C190.726 114.047 190.894 114.429 191.23 114.728C191.575 115.017 192.014 115.162 192.546 115.162C193.078 115.162 193.517 115.013 193.862 114.714C194.207 114.415 194.38 114.033 194.38 113.566ZM192.546 116.366C191.93 116.366 191.426 116.52 191.034 116.828C190.651 117.127 190.46 117.561 190.46 118.13C190.46 118.662 190.647 119.096 191.02 119.432C191.393 119.759 191.902 119.922 192.546 119.922C193.181 119.922 193.68 119.754 194.044 119.418C194.417 119.082 194.604 118.653 194.604 118.13C194.604 117.57 194.413 117.136 194.03 116.828C193.657 116.52 193.162 116.366 192.546 116.366Z" fill="white"/>
</svg>
