<svg width="16" height="16" viewBox="0 0 16 16" fill="none" xmlns="http://www.w3.org/2000/svg">
<g id="Frame">
<path id="Vector" d="M9.33301 1.33331V3.99998C9.33301 4.3536 9.47348 4.69274 9.72353 4.94279C9.97358 5.19284 10.3127 5.33331 10.6663 5.33331H13.333" stroke="black" stroke-width="1.33333" stroke-linecap="round" stroke-linejoin="round"/>
<path id="Vector_2" d="M2.13418 8.59998L1.53418 8.33331" stroke="black" stroke-width="1.33333" stroke-linecap="round" stroke-linejoin="round"/>
<path id="Vector_3" d="M2.13418 10.0667L1.53418 10.3334" stroke="black" stroke-width="1.33333" stroke-linecap="round" stroke-linejoin="round"/>
<path id="Vector_4" d="M3.11833 14.3333C3.36019 14.5466 3.67117 14.665 3.99366 14.6666H12.0003C12.3539 14.6666 12.6931 14.5262 12.9431 14.2761C13.1932 14.0261 13.3337 13.6869 13.3337 13.3333V4.66665L10.0003 1.33331H4.00033C3.6467 1.33331 3.30756 1.47379 3.05752 1.72384C2.80747 1.97389 2.66699 2.31302 2.66699 2.66665V4.33331" stroke="black" stroke-width="1.33333" stroke-linecap="round" stroke-linejoin="round"/>
<path id="Vector_5" d="M3.26667 7.46664L3 6.86664" stroke="black" stroke-width="1.33333" stroke-linecap="round" stroke-linejoin="round"/>
<path id="Vector_6" d="M3.26667 11.2L3 11.8" stroke="black" stroke-width="1.33333" stroke-linecap="round" stroke-linejoin="round"/>
<path id="Vector_7" d="M5.00007 6.8667L4.7334 7.4667" stroke="black" stroke-width="1.33333" stroke-linecap="round" stroke-linejoin="round"/>
<path id="Vector_8" d="M5.00007 11.8L4.7334 11.2" stroke="black" stroke-width="1.33333" stroke-linecap="round" stroke-linejoin="round"/>
<path id="Vector_9" d="M6.46719 8.33331L5.86719 8.59998" stroke="black" stroke-width="1.33333" stroke-linecap="round" stroke-linejoin="round"/>
<path id="Vector_10" d="M6.46719 10.3334L5.86719 10.0667" stroke="black" stroke-width="1.33333" stroke-linecap="round" stroke-linejoin="round"/>
<path id="Vector_11" d="M4 11.3333C5.10457 11.3333 6 10.4379 6 9.33331C6 8.22874 5.10457 7.33331 4 7.33331C2.89543 7.33331 2 8.22874 2 9.33331C2 10.4379 2.89543 11.3333 4 11.3333Z" stroke="black" stroke-width="1.33333" stroke-linecap="round" stroke-linejoin="round"/>
</g>
</svg>
