<svg width="28" height="28" viewBox="0 0 28 28" fill="none" xmlns="http://www.w3.org/2000/svg">
<g id="Frame">
<g id="Group 427323342">
<path id="Vector" d="M21.334 12.1664C24.3716 12.1664 26.834 9.70395 26.834 6.66638C26.834 3.62882 24.3716 1.16638 21.334 1.16638C18.2964 1.16638 15.834 3.62882 15.834 6.66638C15.834 9.70395 18.2964 12.1664 21.334 12.1664Z" stroke="#2C2C2C" stroke-width="1.83333" stroke-linecap="round" stroke-linejoin="round"/>
<path id="Vector_2" d="M22.709 8.04152L21.334 6.89569V4.83319" stroke="#2C2C2C" stroke-width="1.83333" stroke-linecap="round" stroke-linejoin="round"/>
</g>
<path id="Vector_3" d="M25.6667 19.7406V23.2406C25.668 23.5655 25.6014 23.8871 25.4713 24.1848C25.3411 24.4825 25.1502 24.7498 24.9108 24.9694C24.6713 25.1891 24.3887 25.3563 24.0809 25.4604C23.7731 25.5645 23.4469 25.6032 23.1233 25.5739C19.5333 25.1838 16.0848 23.9571 13.055 21.9922C10.2361 20.201 7.84623 17.8111 6.055 14.9922C4.08331 11.9487 2.85629 8.48341 2.47334 4.87725C2.44418 4.55463 2.48252 4.22947 2.58592 3.92248C2.68932 3.61548 2.8555 3.33339 3.0739 3.09414C3.29229 2.85489 3.55811 2.66374 3.85443 2.53286C4.15074 2.40197 4.47107 2.33422 4.795 2.33391H8.295C8.86119 2.32834 9.41009 2.52884 9.83939 2.89804C10.2687 3.26723 10.5491 3.77994 10.6283 4.34058C10.7761 5.46066 11.05 6.56043 11.445 7.61891C11.602 8.03649 11.6359 8.49031 11.5429 8.92661C11.4498 9.3629 11.2337 9.76338 10.92 10.0806L9.43834 11.5622C11.0992 14.4831 13.5175 16.9014 16.4383 18.5622L17.92 17.0806C18.2372 16.7669 18.6377 16.5507 19.074 16.4577C19.5103 16.3646 19.9641 16.3986 20.3817 16.5556C21.4402 16.9506 22.5399 17.2245 23.66 17.3722C24.2267 17.4522 24.7443 17.7377 25.1143 18.1743C25.4843 18.611 25.6809 19.1684 25.6667 19.7406Z" stroke="#2C2C2C" stroke-width="2" stroke-linecap="round" stroke-linejoin="round"/>
</g>
</svg>
