<svg width="14" height="14" viewBox="0 0 14 14" fill="none" xmlns="http://www.w3.org/2000/svg">
<g id="Frame">
<path id="Vector" d="M10.5007 2.91699L9.09249 1.50883C8.87374 1.29002 8.57705 1.16706 8.26765 1.16699H3.50065C3.19123 1.16699 2.89449 1.28991 2.67569 1.5087C2.4569 1.72749 2.33398 2.02424 2.33398 2.33366V11.667C2.33398 11.9764 2.4569 12.2732 2.67569 12.4919C2.89449 12.7107 3.19123 12.8337 3.50065 12.8337H10.5007C10.8101 12.8337 11.1068 12.7107 11.3256 12.4919C11.5444 12.2732 11.6673 11.9764 11.6673 11.667" stroke="#2C2C2C" stroke-width="1.16667" stroke-linecap="round" stroke-linejoin="round"/>
<path id="Vector_2" d="M12.4706 7.36525C12.7029 7.13288 12.8335 6.81771 12.8335 6.48909C12.8335 6.16046 12.7029 5.84529 12.4706 5.61292C12.2382 5.38055 11.923 5.25 11.5944 5.25C11.2658 5.25 10.9506 5.38055 10.7182 5.61292L8.37907 7.95325C8.24038 8.09187 8.13886 8.2632 8.0839 8.45142L7.59565 10.1256C7.58101 10.1758 7.58013 10.229 7.59311 10.2796C7.60609 10.3303 7.63244 10.3765 7.66941 10.4135C7.70638 10.4505 7.75261 10.4768 7.80326 10.4898C7.85392 10.5028 7.90712 10.5019 7.95732 10.4873L9.63148 9.999C9.81971 9.94404 9.99104 9.84253 10.1297 9.70384L12.4706 7.36525Z" stroke="#2C2C2C" stroke-width="1.16667" stroke-linecap="round" stroke-linejoin="round"/>
<path id="Vector_3" d="M4.66602 10.5H5.24935" stroke="#2C2C2C" stroke-width="1.16667" stroke-linecap="round" stroke-linejoin="round"/>
</g>
</svg>
