<svg width="16" height="16" viewBox="0 0 16 16" fill="none" xmlns="http://www.w3.org/2000/svg">
<g id="Frame">
<g id="Group 1000006490">
<path id="Vector" d="M11.9487 12.8205V11.6923C11.9487 11.0939 11.711 10.52 11.2878 10.0968C10.8647 9.67364 10.2907 9.43591 9.6923 9.43591H6.30768C5.70924 9.43591 5.13532 9.67364 4.71216 10.0968C4.289 10.52 4.05127 11.0939 4.05127 11.6923V12.8205" stroke="#2C2C2C" stroke-width="1.12821" stroke-linecap="round" stroke-linejoin="round"/>
<path id="Vector_2" d="M8.00006 7.17945C9.24624 7.17945 10.2565 6.16922 10.2565 4.92304C10.2565 3.67686 9.24624 2.66663 8.00006 2.66663C6.75388 2.66663 5.74365 3.67686 5.74365 4.92304C5.74365 6.16922 6.75388 7.17945 8.00006 7.17945Z" stroke="#2C2C2C" stroke-width="1.12821" stroke-linecap="round" stroke-linejoin="round"/>
<g id="Group 1000006488">
<path id="Vector_3" d="M15.3334 12.8207V11.6925C15.333 11.1925 15.1666 10.7069 14.8603 10.3117C14.554 9.9166 14.1252 9.63439 13.6411 9.5094" stroke="#2C2C2C" stroke-width="1.12821" stroke-linecap="round" stroke-linejoin="round"/>
<path id="Vector_4" d="M11.9492 2.74023C12.4346 2.86451 12.8648 3.14678 13.172 3.54256C13.4792 3.93834 13.646 4.42511 13.646 4.92613C13.646 5.42715 13.4792 5.91392 13.172 6.3097C12.8648 6.70548 12.4346 6.98776 11.9492 7.11203" stroke="#2C2C2C" stroke-width="1.12821" stroke-linecap="round" stroke-linejoin="round"/>
</g>
<g id="Group 1000006489">
<path id="Vector_5" d="M0.667556 12.8207V11.6925C0.667929 11.1925 0.834329 10.7069 1.14063 10.3117C1.44693 9.9166 1.87579 9.63439 2.35986 9.5094" stroke="#2C2C2C" stroke-width="1.12821" stroke-linecap="round" stroke-linejoin="round"/>
<path id="Vector_6" d="M4.05176 2.74023C3.5664 2.86451 3.1362 3.14678 2.82899 3.54256C2.52178 3.93834 2.35503 4.42511 2.35503 4.92613C2.35503 5.42715 2.52178 5.91392 2.82899 6.3097C3.1362 6.70548 3.5664 6.98776 4.05176 7.11203" stroke="#2C2C2C" stroke-width="1.12821" stroke-linecap="round" stroke-linejoin="round"/>
</g>
</g>
</g>
</svg>
