<svg width="28" height="28" viewBox="0 0 28 28" fill="none" xmlns="http://www.w3.org/2000/svg">
<g id="Frame">
<g id="Group 1000006599">
<g id="Group 1000006597">
<path id="Vector" d="M15 4.85577V8.4272H18.5714" stroke="#2C2C2C" stroke-width="1.66667" stroke-linecap="round" stroke-linejoin="round"/>
<path id="Vector_2" d="M20.7144 2.71289L15.7144 7.71289" stroke="#2C2C2C" stroke-width="1.66667" stroke-linecap="round" stroke-linejoin="round"/>
</g>
<g id="Group 1000006598">
<path id="Vector_3" d="M26 10.1423V6.57084H22.4286" stroke="#2C2C2C" stroke-width="1.66667" stroke-linecap="round" stroke-linejoin="round"/>
<path id="Vector_4" d="M20.2856 12.2852L25.2856 7.28516" stroke="#2C2C2C" stroke-width="1.66667" stroke-linecap="round" stroke-linejoin="round"/>
</g>
</g>
<path id="Vector_5" d="M25.6672 19.7401V23.2401C25.6685 23.565 25.6019 23.8866 25.4718 24.1843C25.3416 24.482 25.1507 24.7493 24.9112 24.9689C24.6718 25.1886 24.3892 25.3558 24.0814 25.4599C23.7736 25.564 23.4474 25.6027 23.1238 25.5734C19.5338 25.1833 16.0853 23.9566 13.0555 21.9918C10.2366 20.2005 7.84672 17.8106 6.05549 14.9918C4.0838 11.9482 2.85678 8.48292 2.47382 4.87676C2.44467 4.55414 2.48301 4.22898 2.58641 3.92199C2.68981 3.615 2.85599 3.3329 3.07439 3.09365C3.29278 2.8544 3.5586 2.66325 3.85491 2.53237C4.15123 2.40148 4.47156 2.33373 4.79549 2.33343H8.29549C8.86168 2.32785 9.41058 2.52835 9.83988 2.89755C10.2692 3.26674 10.5496 3.77945 10.6288 4.34009C10.7766 5.46017 11.0505 6.55994 11.4455 7.61843C11.6025 8.036 11.6364 8.48983 11.5434 8.92612C11.4503 9.36241 11.2342 9.76289 10.9205 10.0801L9.43883 11.5618C11.0996 14.4826 13.518 16.9009 16.4388 18.5618L17.9205 17.0801C18.2377 16.7664 18.6382 16.5502 19.0745 16.4572C19.5108 16.3642 19.9646 16.3981 20.3822 16.5551C21.4406 16.9501 22.5404 17.224 23.6605 17.3718C24.2272 17.4517 24.7448 17.7372 25.1148 18.1738C25.4848 18.6105 25.6814 19.1679 25.6672 19.7401Z" stroke="#2C2C2C" stroke-width="2.33333" stroke-linecap="round" stroke-linejoin="round"/>
</g>
</svg>
