<svg width="28" height="28" viewBox="0 0 28 28" fill="none" xmlns="http://www.w3.org/2000/svg">
<g id="Frame">
<g id="Group 1000006601">
<path id="Vector" d="M10.1667 12.8333C12.744 12.8333 14.8333 10.744 14.8333 8.16667C14.8333 5.58934 12.744 3.5 10.1667 3.5C7.58934 3.5 5.5 5.58934 5.5 8.16667C5.5 10.744 7.58934 12.8333 10.1667 12.8333Z" stroke="#2C2C2C" stroke-width="2.33333" stroke-linecap="round" stroke-linejoin="round"/>
<path id="Vector_2" d="M11.3333 17.5H6.66667C5.42899 17.5 4.242 17.9917 3.36684 18.8668C2.49167 19.742 2 20.929 2 22.1667V24.5" stroke="#2C2C2C" stroke-width="2.33333" stroke-linecap="round" stroke-linejoin="round"/>
<g id="Group 427323342">
<path id="Vector_3" d="M21.001 23.166C24.0385 23.166 26.501 20.7036 26.501 17.666C26.501 14.6284 24.0385 12.166 21.001 12.166C17.9634 12.166 15.501 14.6284 15.501 17.666C15.501 20.7036 17.9634 23.166 21.001 23.166Z" stroke="black" stroke-width="1.83333" stroke-linecap="round" stroke-linejoin="round"/>
<path id="Vector_4" d="M22.376 19.0404L21.001 17.8945V15.832" stroke="black" stroke-width="1.83333" stroke-linecap="round" stroke-linejoin="round"/>
</g>
</g>
</g>
</svg>
