<svg width="24" height="24" viewBox="0 0 24 24" fill="none" xmlns="http://www.w3.org/2000/svg">
<path d="M2 11.3343L16 7.44537V16.7787L2 13.6676V11.3343Z" stroke="white" stroke-width="1.55556" stroke-linecap="round" stroke-linejoin="round"/>
<path d="M8.68887 15.8454C8.60716 16.1416 8.4679 16.4188 8.27906 16.6612C8.09022 16.9036 7.85548 17.1064 7.58825 17.2581C7.32103 17.4097 7.02654 17.5073 6.72162 17.5451C6.41669 17.583 6.10729 17.5604 5.81109 17.4787C5.51489 17.397 5.23768 17.2578 4.99529 17.0689C4.7529 16.8801 4.55008 16.6453 4.39842 16.3781C4.24675 16.1109 4.1492 15.8164 4.11134 15.5115C4.07348 15.2065 4.09605 14.8971 4.17776 14.6009" stroke="white" stroke-width="1.55556" stroke-linecap="round" stroke-linejoin="round"/>
<path d="M18.9921 9.57495C19.3768 10.2498 19.5791 11.0132 19.5791 11.79C19.5791 12.5668 19.3768 13.3302 18.9921 14.0051" stroke="white" stroke-width="1.20384" stroke-linecap="round" stroke-linejoin="round"/>
<path d="M21.0746 8.30489C21.676 9.36798 21.992 10.5686 21.992 11.79C21.992 13.0114 21.676 14.212 21.0746 15.2751" stroke="white" stroke-width="1.20384" stroke-linecap="round" stroke-linejoin="round"/>
</svg>
