<svg width="16" height="16" viewBox="0 0 16 16" fill="none" xmlns="http://www.w3.org/2000/svg">
<g id="Frame">
<path id="Vector" d="M14.2939 7.36663L8.16719 13.4933C7.41662 14.2439 6.39864 14.6655 5.33719 14.6655C4.27573 14.6655 3.25775 14.2439 2.50719 13.4933C1.75662 12.7427 1.33496 11.7248 1.33496 10.6633C1.33496 9.60184 1.75662 8.58386 2.50719 7.8333L8.22052 2.11996C8.72089 1.6187 9.3999 1.33675 10.1082 1.33612C10.8164 1.3355 11.4959 1.61625 11.9972 2.11663C12.4984 2.617 12.7804 3.29601 12.781 4.00427C12.7817 4.71253 12.5009 5.39204 12.0005 5.8933L6.27385 11.6066C6.02366 11.8568 5.68434 11.9974 5.33052 11.9974C4.9767 11.9974 4.63737 11.8568 4.38719 11.6066C4.137 11.3564 3.99644 11.0171 3.99644 10.6633C3.99644 10.3095 4.137 9.97015 4.38719 9.71996L10.0472 4.06663" stroke="black" stroke-width="1.33333" stroke-linecap="round" stroke-linejoin="round"/>
</g>
</svg>
