<svg width="24" height="24" viewBox="0 0 24 24" fill="none" xmlns="http://www.w3.org/2000/svg">
<g id="Frame">
<path id="Vector" d="M14 14V16" stroke="#2C2C2C" stroke-width="2" stroke-linecap="round" stroke-linejoin="round"/>
<path id="Vector_2" d="M14 20V22" stroke="#2C2C2C" stroke-width="2" stroke-linecap="round" stroke-linejoin="round"/>
<path id="Vector_3" d="M14 2V4" stroke="#2C2C2C" stroke-width="2" stroke-linecap="round" stroke-linejoin="round"/>
<path id="Vector_4" d="M14 8V10" stroke="#2C2C2C" stroke-width="2" stroke-linecap="round" stroke-linejoin="round"/>
<path id="Vector_5" d="M2 15H10" stroke="#2C2C2C" stroke-width="2" stroke-linecap="round" stroke-linejoin="round"/>
<path id="Vector_6" d="M2 3H8C8.53043 3 9.03914 3.21071 9.41421 3.58579C9.78929 3.96086 10 4.46957 10 5V19C10 19.5304 9.78929 20.0391 9.41421 20.4142C9.03914 20.7893 8.53043 21 8 21H2" stroke="#2C2C2C" stroke-width="2" stroke-linecap="round" stroke-linejoin="round"/>
<path id="Vector_7" d="M2 9H10" stroke="#2C2C2C" stroke-width="2" stroke-linecap="round" stroke-linejoin="round"/>
<path id="Vector_8" d="M22 15H18" stroke="#2C2C2C" stroke-width="2" stroke-linecap="round" stroke-linejoin="round"/>
<path id="Vector_9" d="M22 3H20C19.4696 3 18.9609 3.21071 18.5858 3.58579C18.2107 3.96086 18 4.46957 18 5V19C18 19.5304 18.2107 20.0391 18.5858 20.4142C18.9609 20.7893 19.4696 21 20 21H22" stroke="#2C2C2C" stroke-width="2" stroke-linecap="round" stroke-linejoin="round"/>
<path id="Vector_10" d="M22 9H18" stroke="#2C2C2C" stroke-width="2" stroke-linecap="round" stroke-linejoin="round"/>
<path id="Vector_11" d="M5 3V21" stroke="#2C2C2C" stroke-width="2" stroke-linecap="round" stroke-linejoin="round"/>
</g>
</svg>
