<svg width="16" height="16" viewBox="0 0 16 16" fill="none" xmlns="http://www.w3.org/2000/svg">
<g id="Frame">
<path id="Vector" d="M9.99935 8H6.66602" stroke="#2C2C2C" stroke-width="1.33333" stroke-linecap="round" stroke-linejoin="round"/>
<path id="Vector_2" d="M9.99935 5.33331H6.66602" stroke="#2C2C2C" stroke-width="1.33333" stroke-linecap="round" stroke-linejoin="round"/>
<path id="Vector_3" d="M12.666 11.3333V3.33333C12.666 2.97971 12.5255 2.64057 12.2755 2.39052C12.0254 2.14048 11.6863 2 11.3327 2H2.66602" stroke="#2C2C2C" stroke-width="1.33333" stroke-linecap="round" stroke-linejoin="round"/>
<path id="Vector_4" d="M5.33398 14H13.334C13.6876 14 14.0267 13.8595 14.2768 13.6095C14.5268 13.3594 14.6673 13.0203 14.6673 12.6667V12C14.6673 11.8232 14.5971 11.6536 14.4721 11.5286C14.347 11.4036 14.1775 11.3333 14.0007 11.3333H7.33398C7.15717 11.3333 6.9876 11.4036 6.86258 11.5286C6.73756 11.6536 6.66732 11.8232 6.66732 12V12.6667C6.66732 13.0203 6.52684 13.3594 6.27679 13.6095C6.02674 13.8595 5.68761 14 5.33398 14ZM5.33398 14C4.98036 14 4.64122 13.8595 4.39118 13.6095C4.14113 13.3594 4.00065 13.0203 4.00065 12.6667V3.33333C4.00065 2.97971 3.86018 2.64057 3.61013 2.39052C3.36008 2.14048 3.02094 2 2.66732 2C2.3137 2 1.97456 2.14048 1.72451 2.39052C1.47446 2.64057 1.33398 2.97971 1.33398 3.33333V4.66667C1.33398 4.84348 1.40422 5.01305 1.52925 5.13807C1.65427 5.2631 1.82384 5.33333 2.00065 5.33333H4.00065" stroke="#2C2C2C" stroke-width="1.33333" stroke-linecap="round" stroke-linejoin="round"/>
</g>
</svg>
