<svg width="16" height="16" viewBox="0 0 16 16" fill="none" xmlns="http://www.w3.org/2000/svg">
<g id="Frame">
<path id="Vector" d="M10.6663 14V12.6667C10.6663 11.9594 10.3854 11.2811 9.88529 10.781C9.3852 10.281 8.70692 10 7.99967 10H3.99967C3.29243 10 2.61415 10.281 2.11406 10.781C1.61396 11.2811 1.33301 11.9594 1.33301 12.6667V14" stroke="#2C2C2C" stroke-width="1.33333" stroke-linecap="round" stroke-linejoin="round"/>
<path id="Vector_2" d="M5.99967 7.33333C7.47243 7.33333 8.66634 6.13943 8.66634 4.66667C8.66634 3.19391 7.47243 2 5.99967 2C4.52691 2 3.33301 3.19391 3.33301 4.66667C3.33301 6.13943 4.52691 7.33333 5.99967 7.33333Z" stroke="#2C2C2C" stroke-width="1.33333" stroke-linecap="round" stroke-linejoin="round"/>
<path id="Vector_3" d="M14.667 14.0001V12.6667C14.6666 12.0759 14.4699 11.5019 14.1079 11.0349C13.7459 10.568 13.2391 10.2344 12.667 10.0867" stroke="#2C2C2C" stroke-width="1.33333" stroke-linecap="round" stroke-linejoin="round"/>
<path id="Vector_4" d="M10.667 2.08673C11.2406 2.2336 11.749 2.5672 12.1121 3.03494C12.4752 3.50268 12.6722 4.07795 12.6722 4.67006C12.6722 5.26218 12.4752 5.83745 12.1121 6.30519C11.749 6.77293 11.2406 7.10653 10.667 7.2534" stroke="#2C2C2C" stroke-width="1.33333" stroke-linecap="round" stroke-linejoin="round"/>
</g>
</svg>
