<svg width="30" height="30" viewBox="0 0 30 30" fill="none" xmlns="http://www.w3.org/2000/svg">
<rect x="0.5" y="0.5" width="29" height="29" rx="3.5" fill="white" stroke="#DDDDDD"/>
<path d="M18.9487 19.8205V18.6923C18.9487 18.0939 18.711 17.52 18.2878 17.0968C17.8647 16.6736 17.2907 16.4359 16.6923 16.4359H13.3077C12.7092 16.4359 12.1353 16.6736 11.7122 17.0968C11.289 17.52 11.0513 18.0939 11.0513 18.6923V19.8205" stroke="#2C2C2C" stroke-width="1.12821" stroke-linecap="round" stroke-linejoin="round"/>
<path d="M15.0001 14.1794C16.2462 14.1794 17.2565 13.1692 17.2565 11.923C17.2565 10.6769 16.2462 9.66663 15.0001 9.66663C13.7539 9.66663 12.7437 10.6769 12.7437 11.923C12.7437 13.1692 13.7539 14.1794 15.0001 14.1794Z" stroke="#2C2C2C" stroke-width="1.12821" stroke-linecap="round" stroke-linejoin="round"/>
<path d="M22.3334 19.8207V18.6925C22.333 18.1925 22.1666 17.7069 21.8603 17.3117C21.554 16.9166 21.1252 16.6344 20.6411 16.5094" stroke="#2C2C2C" stroke-width="1.12821" stroke-linecap="round" stroke-linejoin="round"/>
<path d="M18.9492 9.74023C19.4346 9.86451 19.8648 10.1468 20.172 10.5426C20.4792 10.9383 20.646 11.4251 20.646 11.9261C20.646 12.4272 20.4792 12.9139 20.172 13.3097C19.8648 13.7055 19.4346 13.9878 18.9492 14.112" stroke="#2C2C2C" stroke-width="1.12821" stroke-linecap="round" stroke-linejoin="round"/>
<path d="M7.66756 19.8207V18.6925C7.66793 18.1925 7.83433 17.7069 8.14063 17.3117C8.44693 16.9166 8.87579 16.6344 9.35986 16.5094" stroke="#2C2C2C" stroke-width="1.12821" stroke-linecap="round" stroke-linejoin="round"/>
<path d="M11.0518 9.74023C10.5664 9.86451 10.1362 10.1468 9.82899 10.5426C9.52178 10.9383 9.35503 11.4251 9.35503 11.9261C9.35503 12.4272 9.52178 12.9139 9.82899 13.3097C10.1362 13.7055 10.5664 13.9878 11.0518 14.112" stroke="#2C2C2C" stroke-width="1.12821" stroke-linecap="round" stroke-linejoin="round"/>
</svg>
