<svg width="28" height="28" viewBox="0 0 28 28" fill="none" xmlns="http://www.w3.org/2000/svg">
<rect width="28" height="28" rx="5.89474" fill="#ACACAC"/>
<path d="M15.9997 7.33337H11.9997C11.6315 7.33337 11.333 7.63185 11.333 8.00004V9.33337C11.333 9.70156 11.6315 10 11.9997 10H15.9997C16.3679 10 16.6663 9.70156 16.6663 9.33337V8.00004C16.6663 7.63185 16.3679 7.33337 15.9997 7.33337Z" stroke="white" stroke-width="1.33333" stroke-linecap="round" stroke-linejoin="round"/>
<path d="M11.3337 8.66663H10.0003C9.6467 8.66663 9.30756 8.8071 9.05752 9.05715C8.80747 9.3072 8.66699 9.64634 8.66699 9.99996V19.3333C8.66699 19.6869 8.80747 20.0261 9.05752 20.2761C9.30756 20.5262 9.6467 20.6666 10.0003 20.6666H18.0003C18.3539 20.6666 18.6931 20.5262 18.9431 20.2761C19.1932 20.0261 19.3337 19.6869 19.3337 19.3333V18" stroke="white" stroke-width="1.33333" stroke-linecap="round" stroke-linejoin="round"/>
<path d="M16.667 8.66663H18.0003C18.3539 8.66663 18.6931 8.8071 18.9431 9.05715C19.1932 9.3072 19.3337 9.64634 19.3337 9.99996V12.6666" stroke="white" stroke-width="1.33333" stroke-linecap="round" stroke-linejoin="round"/>
<path d="M19.9997 15.3334H13.333" stroke="white" stroke-width="1.33333" stroke-linecap="round" stroke-linejoin="round"/>
<path d="M15.9997 12.6666L13.333 15.3333L15.9997 18" stroke="white" stroke-width="1.33333" stroke-linecap="round" stroke-linejoin="round"/>
</svg>
