<svg width="41" height="41" viewBox="0 0 41 41" fill="none" xmlns="http://www.w3.org/2000/svg">
<rect y="3" width="38" height="38" rx="8" fill="#2C2C2C"/>
<path d="M9 21.3343L23 17.4454V26.7787L9 23.6676V21.3343Z" stroke="white" stroke-width="1.55556" stroke-linecap="round" stroke-linejoin="round"/>
<path d="M15.6889 25.8454C15.6072 26.1416 15.4679 26.4188 15.2791 26.6612C15.0902 26.9036 14.8555 27.1064 14.5883 27.2581C14.321 27.4097 14.0265 27.5073 13.7216 27.5451C13.4167 27.583 13.1073 27.5604 12.8111 27.4787C12.5149 27.397 12.2377 27.2578 11.9953 27.0689C11.7529 26.8801 11.5501 26.6453 11.3984 26.3781C11.2467 26.1109 11.1492 25.8164 11.1113 25.5115C11.0735 25.2065 11.096 24.8971 11.1778 24.6009" stroke="white" stroke-width="1.55556" stroke-linecap="round" stroke-linejoin="round"/>
<path d="M25.9921 19.575C26.3768 20.2498 26.5791 21.0132 26.5791 21.79C26.5791 22.5668 26.3768 23.3302 25.9921 24.0051" stroke="white" stroke-width="1.20384" stroke-linecap="round" stroke-linejoin="round"/>
<path d="M28.0746 18.3049C28.676 19.368 28.992 20.5686 28.992 21.79C28.992 23.0114 28.676 24.212 28.0746 25.2751" stroke="white" stroke-width="1.20384" stroke-linecap="round" stroke-linejoin="round"/>
<circle cx="35" cy="6" r="5.36488" fill="#FFB900" stroke="white" stroke-width="1.27024"/>
</svg>
