<svg width="24" height="24" viewBox="0 0 24 24" fill="none" xmlns="http://www.w3.org/2000/svg">
<g id="icons8-excel 1">
<path id="Vector" d="M20.5 5H12.5V19H20.5C20.775 19 21 18.775 21 18.5V5.5C21 5.225 20.775 5 20.5 5Z" fill="#31C447"/>
<path id="Vector_2" d="M16 7.5H19.5V9H16V7.5ZM16 12.5H19.5V14H16V12.5ZM16 15H19.5V16.5H16V15ZM16 10H19.5V11.5H16V10ZM12.5 7.5H15V9H12.5V7.5ZM12.5 12.5H15V14H12.5V12.5ZM12.5 15H15V16.5H12.5V15ZM12.5 10H15V11.5H12.5V10Z" fill="white"/>
<path id="Vector_3" d="M13.5 21L3 19V5L13.5 3V21Z" fill="url(#paint0_linear_2047_14)"/>
<path id="Vector_4" d="M9.565 15.5L8.36 13.22C8.315 13.135 8.265 12.98 8.22 12.75H8.2C8.175 12.86 8.125 13.02 8.04 13.24L6.83 15.5H4.95L7.18 12L5.14 8.5H7.06L8.06 10.6C8.14 10.765 8.21 10.965 8.27 11.19H8.29C8.33 11.055 8.4 10.85 8.51 10.58L9.625 8.5H11.38L9.28 11.97L11.44 15.5H9.57H9.565Z" fill="white"/>
</g>
<defs>
<linearGradient id="paint0_linear_2047_14" x1="3" y1="12" x2="13.5" y2="12" gradientUnits="userSpaceOnUse">
<stop stop-color="#21AD64"/>
<stop offset="1" stop-color="#088242"/>
</linearGradient>
</defs>
</svg>
