<svg width="20" height="20" viewBox="0 0 20 20" fill="none" xmlns="http://www.w3.org/2000/svg">
<g id="Frame">
<path id="Vector" d="M13.3333 8.33333H15" stroke="#2C2C2C" stroke-width="1.66667" stroke-linecap="round" stroke-linejoin="round"/>
<path id="Vector_2" d="M13.3333 11.6667H15" stroke="#2C2C2C" stroke-width="1.66667" stroke-linecap="round" stroke-linejoin="round"/>
<path id="Vector_3" d="M5.14166 12.5C5.31345 12.0117 5.63258 11.5887 6.05501 11.2895C6.47744 10.9903 6.98234 10.8296 7.5 10.8296C8.01765 10.8296 8.52255 10.9903 8.94498 11.2895C9.36741 11.5887 9.68655 12.0117 9.85833 12.5" stroke="#2C2C2C" stroke-width="1.66667" stroke-linecap="round" stroke-linejoin="round"/>
<path id="Vector_4" d="M7.49998 10.8333C8.42045 10.8333 9.16665 10.0871 9.16665 9.16667C9.16665 8.24619 8.42045 7.5 7.49998 7.5C6.57951 7.5 5.83331 8.24619 5.83331 9.16667C5.83331 10.0871 6.57951 10.8333 7.49998 10.8333Z" stroke="#2C2C2C" stroke-width="1.66667" stroke-linecap="round" stroke-linejoin="round"/>
<path id="Vector_5" d="M16.6667 4.16667H3.33335C2.41288 4.16667 1.66669 4.91286 1.66669 5.83334V14.1667C1.66669 15.0871 2.41288 15.8333 3.33335 15.8333H16.6667C17.5872 15.8333 18.3334 15.0871 18.3334 14.1667V5.83334C18.3334 4.91286 17.5872 4.16667 16.6667 4.16667Z" stroke="#2C2C2C" stroke-width="1.66667" stroke-linecap="round" stroke-linejoin="round"/>
</g>
</svg>
