<svg width="20" height="20" viewBox="0 0 20 20" fill="none" xmlns="http://www.w3.org/2000/svg">
<g id="Frame">
<path id="Vector" d="M9.16666 14.1667L10.8333 15.8333C10.9975 15.9975 11.1924 16.1277 11.4068 16.2165C11.6213 16.3054 11.8512 16.3511 12.0833 16.3511C12.3155 16.3511 12.5453 16.3054 12.7598 16.2165C12.9743 16.1277 13.1692 15.9975 13.3333 15.8333C13.4975 15.6692 13.6277 15.4743 13.7165 15.2598C13.8054 15.0453 13.8511 14.8155 13.8511 14.5833C13.8511 14.3512 13.8054 14.1213 13.7165 13.9068C13.6277 13.6924 13.4975 13.4975 13.3333 13.3333" stroke="#2C2C2C" stroke-width="1.66667" stroke-linecap="round" stroke-linejoin="round"/>
<path id="Vector_2" d="M11.6667 11.6667L13.75 13.75C14.0815 14.0815 14.5312 14.2678 15 14.2678C15.4688 14.2678 15.9185 14.0815 16.25 13.75C16.5815 13.4185 16.7678 12.9688 16.7678 12.5C16.7678 12.0312 16.5815 11.5815 16.25 11.25L13.0167 8.01666C12.5479 7.54849 11.9125 7.28553 11.25 7.28553C10.5875 7.28553 9.95209 7.54849 9.48334 8.01666L8.75001 8.74999C8.41848 9.08151 7.96885 9.26776 7.50001 9.26776C7.03116 9.26776 6.58153 9.08151 6.25001 8.74999C5.91849 8.41847 5.73224 7.96883 5.73224 7.49999C5.73224 7.03115 5.91849 6.58151 6.25001 6.24999L8.59167 3.90833C9.35187 3.15011 10.3433 2.66712 11.4089 2.5358C12.4745 2.40449 13.5535 2.63235 14.475 3.18333L14.8667 3.41666C15.2215 3.63081 15.6434 3.70509 16.05 3.62499L17.5 3.33333" stroke="#2C2C2C" stroke-width="1.66667" stroke-linecap="round" stroke-linejoin="round"/>
<path id="Vector_3" d="M17.5 2.5L18.3333 11.6667H16.6667" stroke="#2C2C2C" stroke-width="1.66667" stroke-linecap="round" stroke-linejoin="round"/>
<path id="Vector_4" d="M2.49999 2.5L1.66666 11.6667L7.08332 17.0833C7.41484 17.4149 7.86448 17.6011 8.33332 17.6011C8.80216 17.6011 9.2518 17.4149 9.58332 17.0833C9.91484 16.7518 10.1011 16.3022 10.1011 15.8333C10.1011 15.3645 9.91484 14.9149 9.58332 14.5833" stroke="#2C2C2C" stroke-width="1.66667" stroke-linecap="round" stroke-linejoin="round"/>
<path id="Vector_5" d="M2.5 3.33333H9.16667" stroke="#2C2C2C" stroke-width="1.66667" stroke-linecap="round" stroke-linejoin="round"/>
</g>
</svg>
