<svg width="105" height="38" viewBox="0 0 105 38" fill="none" xmlns="http://www.w3.org/2000/svg">
<rect width="105" height="38" rx="8" fill="#2C2C2C"/>
<path d="M32.3332 11.5H15.6665L22.3332 19.3833V24.8333L25.6665 26.5V19.3833L32.3332 11.5Z" stroke="white" stroke-width="1.66667" stroke-linecap="round" stroke-linejoin="round"/>
<path d="M55.776 14.27V15.572H51.646V18.442H54.866V19.744H51.646V24H50.05V14.27H55.776ZM58.0671 15.264C57.7777 15.264 57.5351 15.166 57.3391 14.97C57.1431 14.774 57.0451 14.5313 57.0451 14.242C57.0451 13.9527 57.1431 13.71 57.3391 13.514C57.5351 13.318 57.7777 13.22 58.0671 13.22C58.3471 13.22 58.5851 13.318 58.7811 13.514C58.9771 13.71 59.0751 13.9527 59.0751 14.242C59.0751 14.5313 58.9771 14.774 58.7811 14.97C58.5851 15.166 58.3471 15.264 58.0671 15.264ZM58.8511 16.286V24H57.2551V16.286H58.8511ZM62.5425 13.64V24H60.9465V13.64H62.5425ZM66.4999 17.588V21.858C66.4999 22.1473 66.5652 22.3573 66.6959 22.488C66.8359 22.6093 67.0692 22.67 67.3959 22.67H68.3759V24H67.1159C66.3972 24 65.8466 23.832 65.4639 23.496C65.0812 23.16 64.8899 22.614 64.8899 21.858V17.588H63.9799V16.286H64.8899V14.368H66.4999V16.286H68.3759V17.588H66.4999ZM76.9169 19.954C76.9169 20.2433 76.8982 20.5047 76.8609 20.738H70.9669C71.0135 21.354 71.2422 21.8487 71.6529 22.222C72.0635 22.5953 72.5675 22.782 73.1649 22.782C74.0235 22.782 74.6302 22.4227 74.9849 21.704H76.7069C76.4735 22.4133 76.0489 22.9967 75.4329 23.454C74.8262 23.902 74.0702 24.126 73.1649 24.126C72.4275 24.126 71.7649 23.9627 71.1769 23.636C70.5982 23.3 70.1409 22.8333 69.8049 22.236C69.4782 21.6293 69.3149 20.9293 69.3149 20.136C69.3149 19.3427 69.4735 18.6473 69.7909 18.05C70.1175 17.4433 70.5702 16.9767 71.1489 16.65C71.7369 16.3233 72.4089 16.16 73.1649 16.16C73.8929 16.16 74.5415 16.3187 75.1109 16.636C75.6802 16.9533 76.1235 17.4013 76.4409 17.98C76.7582 18.5493 76.9169 19.2073 76.9169 19.954ZM75.2509 19.45C75.2415 18.862 75.0315 18.3907 74.6209 18.036C74.2102 17.6813 73.7015 17.504 73.0949 17.504C72.5442 17.504 72.0729 17.6813 71.6809 18.036C71.2889 18.3813 71.0555 18.8527 70.9809 19.45H75.2509ZM80.0835 17.406C80.3168 17.014 80.6248 16.7107 81.0075 16.496C81.3995 16.272 81.8615 16.16 82.3935 16.16V17.812H81.9875C81.3622 17.812 80.8862 17.9707 80.5595 18.288C80.2422 18.6053 80.0835 19.156 80.0835 19.94V24H78.4875V16.286H80.0835V17.406ZM86.6605 24.126C86.0539 24.126 85.5079 24.0187 85.0225 23.804C84.5465 23.58 84.1685 23.2813 83.8885 22.908C83.6085 22.5253 83.4592 22.1007 83.4405 21.634H85.0925C85.1205 21.9607 85.2745 22.236 85.5545 22.46C85.8439 22.6747 86.2032 22.782 86.6325 22.782C87.0805 22.782 87.4259 22.698 87.6685 22.53C87.9205 22.3527 88.0465 22.1287 88.0465 21.858C88.0465 21.5687 87.9065 21.354 87.6265 21.214C87.3559 21.074 86.9219 20.92 86.3245 20.752C85.7459 20.5933 85.2745 20.4393 84.9105 20.29C84.5465 20.1407 84.2292 19.912 83.9585 19.604C83.6972 19.296 83.5665 18.89 83.5665 18.386C83.5665 17.9753 83.6879 17.602 83.9305 17.266C84.1732 16.9207 84.5185 16.65 84.9665 16.454C85.4239 16.258 85.9465 16.16 86.5345 16.16C87.4119 16.16 88.1165 16.384 88.6485 16.832C89.1899 17.2707 89.4792 17.8727 89.5165 18.638H87.9205C87.8925 18.2927 87.7525 18.0173 87.5005 17.812C87.2485 17.6067 86.9079 17.504 86.4785 17.504C86.0585 17.504 85.7365 17.5833 85.5125 17.742C85.2885 17.9007 85.1765 18.1107 85.1765 18.372C85.1765 18.5773 85.2512 18.75 85.4005 18.89C85.5499 19.03 85.7319 19.142 85.9465 19.226C86.1612 19.3007 86.4785 19.3987 86.8985 19.52C87.4585 19.6693 87.9159 19.8233 88.2705 19.982C88.6345 20.1313 88.9472 20.3553 89.2085 20.654C89.4699 20.9527 89.6052 21.3493 89.6145 21.844C89.6145 22.2827 89.4932 22.6747 89.2505 23.02C89.0079 23.3653 88.6625 23.636 88.2145 23.832C87.7759 24.028 87.2579 24.126 86.6605 24.126Z" fill="white"/>
</svg>
