<svg width="173" height="38" viewBox="0 0 173 38" fill="none" xmlns="http://www.w3.org/2000/svg">
<rect x="0.5" y="0.5" width="172" height="37" rx="7.5" fill="white" stroke="#E7E7E7"/>
<path d="M41.684 14.66V23H40.316V17.288L37.772 23H36.824L34.268 17.288V23H32.9V14.66H34.376L37.304 21.2L40.22 14.66H41.684ZM49.434 16.388L45.378 26.108H43.962L45.306 22.892L42.702 16.388H44.226L46.086 21.428L48.018 16.388H49.434ZM53.1276 18.812C53.1276 17.996 53.3156 17.264 53.6916 16.616C54.0756 15.968 54.5916 15.464 55.2396 15.104C55.8956 14.736 56.6116 14.552 57.3876 14.552C58.2756 14.552 59.0636 14.772 59.7516 15.212C60.4476 15.644 60.9516 16.26 61.2636 17.06H59.6196C59.4036 16.62 59.1036 16.292 58.7196 16.076C58.3356 15.86 57.8916 15.752 57.3876 15.752C56.8356 15.752 56.3436 15.876 55.9116 16.124C55.4796 16.372 55.1396 16.728 54.8916 17.192C54.6516 17.656 54.5316 18.196 54.5316 18.812C54.5316 19.428 54.6516 19.968 54.8916 20.432C55.1396 20.896 55.4796 21.256 55.9116 21.512C56.3436 21.76 56.8356 21.884 57.3876 21.884C57.8916 21.884 58.3356 21.776 58.7196 21.56C59.1036 21.344 59.4036 21.016 59.6196 20.576H61.2636C60.9516 21.376 60.4476 21.992 59.7516 22.424C59.0636 22.856 58.2756 23.072 57.3876 23.072C56.6036 23.072 55.8876 22.892 55.2396 22.532C54.5916 22.164 54.0756 21.656 53.6916 21.008C53.3156 20.36 53.1276 19.628 53.1276 18.812ZM62.4088 19.664C62.4088 19 62.5448 18.412 62.8168 17.9C63.0968 17.388 63.4728 16.992 63.9448 16.712C64.4248 16.424 64.9528 16.28 65.5288 16.28C66.0488 16.28 66.5008 16.384 66.8848 16.592C67.2768 16.792 67.5888 17.044 67.8208 17.348V16.388H69.2008V23H67.8208V22.016C67.5888 22.328 67.2728 22.588 66.8728 22.796C66.4728 23.004 66.0168 23.108 65.5048 23.108C64.9368 23.108 64.4168 22.964 63.9448 22.676C63.4728 22.38 63.0968 21.972 62.8168 21.452C62.5448 20.924 62.4088 20.328 62.4088 19.664ZM67.8208 19.688C67.8208 19.232 67.7248 18.836 67.5328 18.5C67.3488 18.164 67.1048 17.908 66.8008 17.732C66.4968 17.556 66.1688 17.468 65.8168 17.468C65.4648 17.468 65.1368 17.556 64.8328 17.732C64.5288 17.9 64.2808 18.152 64.0888 18.488C63.9048 18.816 63.8128 19.208 63.8128 19.664C63.8128 20.12 63.9048 20.52 64.0888 20.864C64.2808 21.208 64.5288 21.472 64.8328 21.656C65.1448 21.832 65.4728 21.92 65.8168 21.92C66.1688 21.92 66.4968 21.832 66.8008 21.656C67.1048 21.48 67.3488 21.224 67.5328 20.888C67.7248 20.544 67.8208 20.144 67.8208 19.688ZM72.3657 14.12V23H70.9977V14.12H72.3657ZM75.5297 14.12V23H74.1617V14.12H75.5297ZM79.7258 23.108C79.2058 23.108 78.7378 23.016 78.3218 22.832C77.9138 22.64 77.5898 22.384 77.3498 22.064C77.1098 21.736 76.9818 21.372 76.9658 20.972H78.3818C78.4058 21.252 78.5378 21.488 78.7778 21.68C79.0258 21.864 79.3338 21.956 79.7018 21.956C80.0858 21.956 80.3818 21.884 80.5898 21.74C80.8058 21.588 80.9138 21.396 80.9138 21.164C80.9138 20.916 80.7938 20.732 80.5538 20.612C80.3218 20.492 79.9498 20.36 79.4378 20.216C78.9418 20.08 78.5378 19.948 78.2258 19.82C77.9138 19.692 77.6418 19.496 77.4098 19.232C77.1858 18.968 77.0738 18.62 77.0738 18.188C77.0738 17.836 77.1778 17.516 77.3858 17.228C77.5938 16.932 77.8898 16.7 78.2738 16.532C78.6658 16.364 79.1138 16.28 79.6178 16.28C80.3698 16.28 80.9738 16.472 81.4298 16.856C81.8938 17.232 82.1418 17.748 82.1738 18.404H80.8058C80.7818 18.108 80.6618 17.872 80.4458 17.696C80.2298 17.52 79.9378 17.432 79.5698 17.432C79.2098 17.432 78.9338 17.5 78.7418 17.636C78.5498 17.772 78.4538 17.952 78.4538 18.176C78.4538 18.352 78.5178 18.5 78.6458 18.62C78.7738 18.74 78.9298 18.836 79.1138 18.908C79.2978 18.972 79.5698 19.056 79.9298 19.16C80.4098 19.288 80.8018 19.42 81.1058 19.556C81.4178 19.684 81.6858 19.876 81.9098 20.132C82.1338 20.388 82.2498 20.728 82.2578 21.152C82.2578 21.528 82.1538 21.864 81.9458 22.16C81.7378 22.456 81.4418 22.688 81.0578 22.856C80.6818 23.024 80.2378 23.108 79.7258 23.108Z" fill="#2C2C2C"/>
<circle cx="8" cy="8" r="7.55556" transform="matrix(1 0 0 -1 10 27)" fill="white" stroke="#0062FF" stroke-width="0.888889"/>
<circle cx="5.33333" cy="5.33333" r="5.33333" transform="matrix(1 0 0 -1 12.6665 24.3333)" fill="#0062FF"/>
<path d="M120.928 21.296H117.436L116.836 23H115.408L118.396 14.648H119.98L122.968 23H121.528L120.928 21.296ZM120.544 20.18L119.188 16.304L117.82 20.18H120.544ZM125.635 14.12V23H124.267V14.12H125.635ZM128.799 14.12V23H127.431V14.12H128.799ZM133.257 18.812C133.257 17.996 133.445 17.264 133.821 16.616C134.205 15.968 134.721 15.464 135.369 15.104C136.025 14.736 136.741 14.552 137.517 14.552C138.405 14.552 139.193 14.772 139.881 15.212C140.577 15.644 141.081 16.26 141.393 17.06H139.749C139.533 16.62 139.233 16.292 138.849 16.076C138.465 15.86 138.021 15.752 137.517 15.752C136.965 15.752 136.473 15.876 136.041 16.124C135.609 16.372 135.269 16.728 135.021 17.192C134.781 17.656 134.661 18.196 134.661 18.812C134.661 19.428 134.781 19.968 135.021 20.432C135.269 20.896 135.609 21.256 136.041 21.512C136.473 21.76 136.965 21.884 137.517 21.884C138.021 21.884 138.465 21.776 138.849 21.56C139.233 21.344 139.533 21.016 139.749 20.576H141.393C141.081 21.376 140.577 21.992 139.881 22.424C139.193 22.856 138.405 23.072 137.517 23.072C136.733 23.072 136.017 22.892 135.369 22.532C134.721 22.164 134.205 21.656 133.821 21.008C133.445 20.36 133.257 19.628 133.257 18.812ZM142.538 19.664C142.538 19 142.674 18.412 142.946 17.9C143.226 17.388 143.602 16.992 144.074 16.712C144.554 16.424 145.082 16.28 145.658 16.28C146.178 16.28 146.63 16.384 147.014 16.592C147.406 16.792 147.718 17.044 147.95 17.348V16.388H149.33V23H147.95V22.016C147.718 22.328 147.402 22.588 147.002 22.796C146.602 23.004 146.146 23.108 145.634 23.108C145.066 23.108 144.546 22.964 144.074 22.676C143.602 22.38 143.226 21.972 142.946 21.452C142.674 20.924 142.538 20.328 142.538 19.664ZM147.95 19.688C147.95 19.232 147.854 18.836 147.662 18.5C147.478 18.164 147.234 17.908 146.93 17.732C146.626 17.556 146.298 17.468 145.946 17.468C145.594 17.468 145.266 17.556 144.962 17.732C144.658 17.9 144.41 18.152 144.218 18.488C144.034 18.816 143.942 19.208 143.942 19.664C143.942 20.12 144.034 20.52 144.218 20.864C144.41 21.208 144.658 21.472 144.962 21.656C145.274 21.832 145.602 21.92 145.946 21.92C146.298 21.92 146.626 21.832 146.93 21.656C147.234 21.48 147.478 21.224 147.662 20.888C147.854 20.544 147.95 20.144 147.95 19.688ZM152.495 14.12V23H151.127V14.12H152.495ZM155.659 14.12V23H154.291V14.12H155.659ZM159.855 23.108C159.335 23.108 158.867 23.016 158.451 22.832C158.043 22.64 157.719 22.384 157.479 22.064C157.239 21.736 157.111 21.372 157.095 20.972H158.511C158.535 21.252 158.667 21.488 158.907 21.68C159.155 21.864 159.463 21.956 159.831 21.956C160.215 21.956 160.511 21.884 160.719 21.74C160.935 21.588 161.043 21.396 161.043 21.164C161.043 20.916 160.923 20.732 160.683 20.612C160.451 20.492 160.079 20.36 159.567 20.216C159.071 20.08 158.667 19.948 158.355 19.82C158.043 19.692 157.771 19.496 157.539 19.232C157.315 18.968 157.203 18.62 157.203 18.188C157.203 17.836 157.307 17.516 157.515 17.228C157.723 16.932 158.019 16.7 158.403 16.532C158.795 16.364 159.243 16.28 159.747 16.28C160.499 16.28 161.103 16.472 161.559 16.856C162.023 17.232 162.271 17.748 162.303 18.404H160.935C160.911 18.108 160.791 17.872 160.575 17.696C160.359 17.52 160.067 17.432 159.699 17.432C159.339 17.432 159.063 17.5 158.871 17.636C158.679 17.772 158.583 17.952 158.583 18.176C158.583 18.352 158.647 18.5 158.775 18.62C158.903 18.74 159.059 18.836 159.243 18.908C159.427 18.972 159.699 19.056 160.059 19.16C160.539 19.288 160.931 19.42 161.235 19.556C161.547 19.684 161.815 19.876 162.039 20.132C162.263 20.388 162.379 20.728 162.387 21.152C162.387 21.528 162.283 21.864 162.075 22.16C161.867 22.456 161.571 22.688 161.187 22.856C160.811 23.024 160.367 23.108 159.855 23.108Z" fill="#2C2C2C"/>
<circle cx="8" cy="8" r="7.55556" transform="matrix(1 0 0 -1 93 27)" fill="white" stroke="#ACACAC" stroke-width="0.888889"/>
<circle cx="5.33333" cy="5.33333" r="5.33333" transform="matrix(1 0 0 -1 95.6665 24.3333)" fill="white"/>
</svg>
