<svg width="20" height="20" viewBox="0 0 20 20" fill="none" xmlns="http://www.w3.org/2000/svg">
<g id="Frame" clip-path="url(#clip0_1_349)">
<path id="Vector" d="M9.16667 13.3333H10.8333C11.2754 13.3333 11.6993 13.1577 12.0118 12.8452C12.3244 12.5326 12.5 12.1087 12.5 11.6667C12.5 11.2246 12.3244 10.8007 12.0118 10.4882C11.6993 10.1756 11.2754 10 10.8333 10H8.33333C7.83333 10 7.41667 10.1667 7.16667 10.5L2.5 15" stroke="#2C2C2C" stroke-width="1.66667" stroke-linecap="round" stroke-linejoin="round"/>
<path id="Vector_2" d="M5.83331 18.3334L7.16665 17.1667C7.41665 16.8334 7.83331 16.6667 8.33331 16.6667H11.6666C12.5833 16.6667 13.4166 16.3334 14 15.6667L17.8333 12C18.1549 11.6961 18.3426 11.2769 18.3551 10.8347C18.3676 10.3924 18.2039 9.96326 17.9 9.64169C17.5961 9.32011 17.1769 9.13243 16.7346 9.11993C16.2923 9.10743 15.8632 9.27113 15.5416 9.57502L12.0416 12.825" stroke="#2C2C2C" stroke-width="1.66667" stroke-linecap="round" stroke-linejoin="round"/>
<path id="Vector_3" d="M1.66669 14.1667L6.66669 19.1667" stroke="#2C2C2C" stroke-width="1.66667" stroke-linecap="round" stroke-linejoin="round"/>
<g id="Group 1000006402">
<path id="Vector_4" d="M10 3.16665L9.25 2.83331" stroke="#2C2C2C" stroke-width="1.66667" stroke-linecap="round" stroke-linejoin="round"/>
<path id="Vector_5" d="M10 5L9.25 5.33333" stroke="#2C2C2C" stroke-width="1.66667" stroke-linecap="round" stroke-linejoin="round"/>
<path id="Vector_6" d="M11.4166 1.75L11.0833 1" stroke="#2C2C2C" stroke-width="1.66667" stroke-linecap="round" stroke-linejoin="round"/>
<path id="Vector_7" d="M11.4166 6.41663L11.0833 7.16663" stroke="#2C2C2C" stroke-width="1.66667" stroke-linecap="round" stroke-linejoin="round"/>
<path id="Vector_8" d="M13.5833 1L13.25 1.75" stroke="#2C2C2C" stroke-width="1.66667" stroke-linecap="round" stroke-linejoin="round"/>
<path id="Vector_9" d="M13.5833 7.16663L13.25 6.41663" stroke="#2C2C2C" stroke-width="1.66667" stroke-linecap="round" stroke-linejoin="round"/>
<path id="Vector_10" d="M15.4165 2.83331L14.6665 3.16665" stroke="#2C2C2C" stroke-width="1.66667" stroke-linecap="round" stroke-linejoin="round"/>
<path id="Vector_11" d="M15.4165 5.33333L14.6665 5" stroke="#2C2C2C" stroke-width="1.66667" stroke-linecap="round" stroke-linejoin="round"/>
<path id="Vector_12" d="M12.3333 6.58331C13.714 6.58331 14.8333 5.46402 14.8333 4.08331C14.8333 2.7026 13.714 1.58331 12.3333 1.58331C10.9525 1.58331 9.83325 2.7026 9.83325 4.08331C9.83325 5.46402 10.9525 6.58331 12.3333 6.58331Z" stroke="#2C2C2C" stroke-width="1.66667" stroke-linecap="round" stroke-linejoin="round"/>
</g>
</g>
<defs>
<clipPath id="clip0_1_349">
<rect width="20" height="20" fill="white"/>
</clipPath>
</defs>
</svg>
