<svg width="20" height="20" viewBox="0 0 20 20" fill="none" xmlns="http://www.w3.org/2000/svg">
<g clip-path="url(#clip0_3303_835)">
<path d="M4.99935 15H3.33268C2.89065 15 2.46673 14.8244 2.15417 14.5118C1.84161 14.1993 1.66602 13.7754 1.66602 13.3333V9.16667C1.66602 8.72464 1.84161 8.30072 2.15417 7.98816C2.46673 7.6756 2.89065 7.5 3.33268 7.5H16.666C17.108 7.5 17.532 7.6756 17.8445 7.98816C18.1571 8.30072 18.3327 8.72464 18.3327 9.16667V13.3333C18.3327 13.7754 18.1571 14.1993 17.8445 14.5118C17.532 14.8244 17.108 15 16.666 15H14.9993" stroke="#2C2C2C" stroke-width="1.66667" stroke-linecap="round" stroke-linejoin="round"/>
<path d="M5 7.49935V2.49935C5 2.27834 5.0878 2.06637 5.24408 1.91009C5.40036 1.75381 5.61232 1.66602 5.83333 1.66602H14.1667C14.3877 1.66602 14.5996 1.75381 14.7559 1.91009C14.9122 2.06637 15 2.27834 15 2.49935V7.49935" stroke="#2C2C2C" stroke-width="1.66667" stroke-linecap="round" stroke-linejoin="round"/>
<path d="M14.1667 11.666H5.83333C5.3731 11.666 5 12.0391 5 12.4993V17.4993C5 17.9596 5.3731 18.3327 5.83333 18.3327H14.1667C14.6269 18.3327 15 17.9596 15 17.4993V12.4993C15 12.0391 14.6269 11.666 14.1667 11.666Z" stroke="#2C2C2C" stroke-width="1.66667" stroke-linecap="round" stroke-linejoin="round"/>
</g>
<defs>
<clipPath id="clip0_3303_835">
<rect width="20" height="20" fill="white"/>
</clipPath>
</defs>
</svg>
