<svg width="20" height="20" viewBox="0 0 20 20" fill="none" xmlns="http://www.w3.org/2000/svg">
<g id="Frame">
<path id="Vector" d="M12.5 1.66667H5.00001C4.55798 1.66667 4.13406 1.84227 3.8215 2.15483C3.50894 2.46739 3.33334 2.89131 3.33334 3.33334V16.6667C3.33334 17.1087 3.50894 17.5326 3.8215 17.8452C4.13406 18.1577 4.55798 18.3333 5.00001 18.3333H15C15.442 18.3333 15.866 18.1577 16.1785 17.8452C16.4911 17.5326 16.6667 17.1087 16.6667 16.6667V5.83334L12.5 1.66667Z" stroke="#2C2C2C" stroke-width="1.66667" stroke-linecap="round" stroke-linejoin="round"/>
<path id="Vector_2" d="M11.6667 1.66667V5.00001C11.6667 5.44203 11.8423 5.86596 12.1548 6.17852C12.4674 6.49108 12.8913 6.66667 13.3333 6.66667H16.6667" stroke="#2C2C2C" stroke-width="1.66667" stroke-linecap="round" stroke-linejoin="round"/>
<path id="Vector_3" d="M8.33332 7.5H6.66666" stroke="#2C2C2C" stroke-width="1.66667" stroke-linecap="round" stroke-linejoin="round"/>
<path id="Vector_4" d="M13.3333 10.8333H6.66666" stroke="#2C2C2C" stroke-width="1.66667" stroke-linecap="round" stroke-linejoin="round"/>
<path id="Vector_5" d="M13.3333 14.1667H6.66666" stroke="#2C2C2C" stroke-width="1.66667" stroke-linecap="round" stroke-linejoin="round"/>
</g>
</svg>
