<svg width="20" height="20" viewBox="0 0 20 20" fill="none" xmlns="http://www.w3.org/2000/svg">
<g id="Frame">
<path id="Vector" d="M11.6666 17.5V14.1667C11.6666 13.7246 11.4911 13.3007 11.1785 12.9882C10.8659 12.6756 10.442 12.5 9.99998 12.5C9.55795 12.5 9.13403 12.6756 8.82147 12.9882C8.50891 13.3007 8.33331 13.7246 8.33331 14.1667V17.5" stroke="#2C2C2C" stroke-width="1.66667" stroke-linecap="round" stroke-linejoin="round"/>
<path id="Vector_2" d="M15 7.5L17.8725 8.93667C18.0109 9.00583 18.1273 9.11215 18.2087 9.24373C18.2901 9.37531 18.3333 9.52695 18.3334 9.68167V15.8333C18.3334 16.2754 18.1578 16.6993 17.8452 17.0118C17.5326 17.3244 17.1087 17.5 16.6667 17.5H3.33335C2.89133 17.5 2.4674 17.3244 2.15484 17.0118C1.84228 16.6993 1.66669 16.2754 1.66669 15.8333V9.68167C1.66677 9.52695 1.70992 9.37531 1.79131 9.24373C1.8727 9.11215 1.98912 9.00583 2.12752 8.93667L5.00002 7.5" stroke="#2C2C2C" stroke-width="1.66667" stroke-linecap="round" stroke-linejoin="round"/>
<path id="Vector_3" d="M15 2.5V17.5" stroke="#2C2C2C" stroke-width="1.66667" stroke-linecap="round" stroke-linejoin="round"/>
<path id="Vector_4" d="M5 2.5L10 2.5L15 2.5" stroke="#2C2C2C" stroke-width="1.66667" stroke-linecap="round" stroke-linejoin="round"/>
<path id="Vector_5" d="M5 2.5V17.5" stroke="#2C2C2C" stroke-width="1.66667" stroke-linecap="round" stroke-linejoin="round"/>
<path id="Vector_6" d="M9.99998 9.16666C10.9205 9.16666 11.6666 8.42047 11.6666 7.49999C11.6666 6.57952 10.9205 5.83333 9.99998 5.83333C9.07951 5.83333 8.33331 6.57952 8.33331 7.49999C8.33331 8.42047 9.07951 9.16666 9.99998 9.16666Z" stroke="#2C2C2C" stroke-width="1.66667" stroke-linecap="round" stroke-linejoin="round"/>
</g>
</svg>
