<svg width="138" height="38" viewBox="0 0 138 38" fill="none" xmlns="http://www.w3.org/2000/svg">
<rect width="138" height="38" rx="8" fill="#FFDB7A"/>
<path d="M20 11.5V25.6667C20 25.8877 19.9122 26.0996 19.7559 26.2559C19.5996 26.4122 19.3877 26.5 19.1667 26.5H14.1667C13.7246 26.5 13.3007 26.3244 12.9882 26.0118C12.6756 25.6993 12.5 25.2754 12.5 24.8333V13.1667C12.5 12.7246 12.6756 12.3007 12.9882 11.9882C13.3007 11.6756 13.7246 11.5 14.1667 11.5H25.8333C26.2754 11.5 26.6993 11.6756 27.0118 11.9882C27.3244 12.3007 27.5 12.7246 27.5 13.1667V18.1667C27.5 18.3877 27.4122 18.5996 27.2559 18.7559C27.0996 18.9122 26.8877 19 26.6667 19H12.5" stroke="#2C2C2C" stroke-width="1.66667" stroke-linecap="round" stroke-linejoin="round"/>
<path d="M23.3335 24.8333H28.3335" stroke="#2C2C2C" stroke-width="1.66667" stroke-linecap="round" stroke-linejoin="round"/>
<path d="M25.8335 27.3333V22.3333" stroke="#2C2C2C" stroke-width="1.66667" stroke-linecap="round" stroke-linejoin="round"/>
<path d="M42.256 24.098C41.6027 24.098 41.0147 23.986 40.492 23.762C39.9693 23.5287 39.5587 23.202 39.26 22.782C38.9613 22.362 38.812 21.872 38.812 21.312H40.52C40.5573 21.732 40.7207 22.0773 41.01 22.348C41.3087 22.6187 41.724 22.754 42.256 22.754C42.8067 22.754 43.236 22.6233 43.544 22.362C43.852 22.0913 44.006 21.746 44.006 21.326C44.006 20.9993 43.908 20.7333 43.712 20.528C43.5253 20.3227 43.2873 20.164 42.998 20.052C42.718 19.94 42.326 19.8187 41.822 19.688C41.1873 19.52 40.6693 19.352 40.268 19.184C39.876 19.0067 39.54 18.736 39.26 18.372C38.98 18.008 38.84 17.5227 38.84 16.916C38.84 16.356 38.98 15.866 39.26 15.446C39.54 15.026 39.932 14.704 40.436 14.48C40.94 14.256 41.5233 14.144 42.186 14.144C43.1287 14.144 43.8987 14.382 44.496 14.858C45.1027 15.3247 45.4387 15.9687 45.504 16.79H43.74C43.712 16.4353 43.544 16.132 43.236 15.88C42.928 15.628 42.522 15.502 42.018 15.502C41.5607 15.502 41.1873 15.6187 40.898 15.852C40.6087 16.0853 40.464 16.4213 40.464 16.86C40.464 17.1587 40.5527 17.406 40.73 17.602C40.9167 17.7887 41.15 17.938 41.43 18.05C41.71 18.162 42.0927 18.2833 42.578 18.414C43.222 18.5913 43.7447 18.7687 44.146 18.946C44.5567 19.1233 44.902 19.3987 45.182 19.772C45.4713 20.136 45.616 20.626 45.616 21.242C45.616 21.7367 45.4807 22.2033 45.21 22.642C44.9487 23.0807 44.5613 23.4353 44.048 23.706C43.544 23.9673 42.9467 24.098 42.256 24.098ZM51.4892 16.16C52.0772 16.16 52.5999 16.286 53.0572 16.538C53.5239 16.79 53.8879 17.1633 54.1492 17.658C54.4199 18.1527 54.5552 18.75 54.5552 19.45V24H52.9732V19.688C52.9732 18.9973 52.8006 18.47 52.4552 18.106C52.1099 17.7327 51.6386 17.546 51.0412 17.546C50.4439 17.546 49.9679 17.7327 49.6132 18.106C49.2679 18.47 49.0952 18.9973 49.0952 19.688V24H47.4992V13.64H49.0952V17.182C49.3659 16.8553 49.7066 16.6033 50.1172 16.426C50.5372 16.2487 50.9946 16.16 51.4892 16.16ZM59.937 24.126C59.209 24.126 58.551 23.9627 57.963 23.636C57.375 23.3 56.913 22.8333 56.577 22.236C56.241 21.6293 56.073 20.9293 56.073 20.136C56.073 19.352 56.2457 18.6567 56.591 18.05C56.9363 17.4433 57.4077 16.9767 58.005 16.65C58.6023 16.3233 59.2697 16.16 60.007 16.16C60.7443 16.16 61.4117 16.3233 62.009 16.65C62.6063 16.9767 63.0777 17.4433 63.423 18.05C63.7683 18.6567 63.941 19.352 63.941 20.136C63.941 20.92 63.7637 21.6153 63.409 22.222C63.0543 22.8287 62.569 23.3 61.953 23.636C61.3463 23.9627 60.6743 24.126 59.937 24.126ZM59.937 22.74C60.3477 22.74 60.7303 22.642 61.085 22.446C61.449 22.25 61.743 21.956 61.967 21.564C62.191 21.172 62.303 20.696 62.303 20.136C62.303 19.576 62.1957 19.1047 61.981 18.722C61.7663 18.33 61.4817 18.036 61.127 17.84C60.7723 17.644 60.3897 17.546 59.979 17.546C59.5683 17.546 59.1857 17.644 58.831 17.84C58.4857 18.036 58.2103 18.33 58.005 18.722C57.7997 19.1047 57.697 19.576 57.697 20.136C57.697 20.9667 57.907 21.6107 58.327 22.068C58.7563 22.516 59.293 22.74 59.937 22.74ZM67.1148 17.406C67.3481 17.014 67.6561 16.7107 68.0388 16.496C68.4308 16.272 68.8928 16.16 69.4248 16.16V17.812H69.0188C68.3934 17.812 67.9174 17.9707 67.5908 18.288C67.2734 18.6053 67.1148 19.156 67.1148 19.94V24H65.5188V16.286H67.1148V17.406ZM72.7538 17.588V21.858C72.7538 22.1473 72.8191 22.3573 72.9498 22.488C73.0898 22.6093 73.3231 22.67 73.6498 22.67H74.6298V24H73.3698C72.6511 24 72.1005 23.832 71.7178 23.496C71.3351 23.16 71.1438 22.614 71.1438 21.858V17.588H70.2338V16.286H71.1438V14.368H72.7538V16.286H74.6298V17.588H72.7538ZM75.5688 20.136C75.5688 19.3427 75.7274 18.6473 76.0448 18.05C76.3714 17.4433 76.8194 16.9767 77.3888 16.65C77.9581 16.3233 78.6114 16.16 79.3488 16.16C80.2821 16.16 81.0521 16.384 81.6588 16.832C82.2748 17.2707 82.6901 17.9007 82.9048 18.722H81.1828C81.0428 18.3393 80.8188 18.0407 80.5108 17.826C80.2028 17.6113 79.8154 17.504 79.3488 17.504C78.6954 17.504 78.1728 17.7373 77.7808 18.204C77.3981 18.6613 77.2068 19.3053 77.2068 20.136C77.2068 20.9667 77.3981 21.6153 77.7808 22.082C78.1728 22.5487 78.6954 22.782 79.3488 22.782C80.2728 22.782 80.8841 22.376 81.1828 21.564H82.9048C82.6808 22.348 82.2608 22.9733 81.6448 23.44C81.0288 23.8973 80.2634 24.126 79.3488 24.126C78.6114 24.126 77.9581 23.9627 77.3888 23.636C76.8194 23.3 76.3714 22.8333 76.0448 22.236C75.7274 21.6293 75.5688 20.9293 75.5688 20.136ZM91.4813 16.286V24H89.8853V23.09C89.6333 23.4073 89.302 23.6593 88.8913 23.846C88.49 24.0233 88.0606 24.112 87.6033 24.112C86.9966 24.112 86.4506 23.986 85.9653 23.734C85.4893 23.482 85.1113 23.1087 84.8313 22.614C84.5606 22.1193 84.4253 21.522 84.4253 20.822V16.286H86.0073V20.584C86.0073 21.2747 86.18 21.8067 86.5253 22.18C86.8706 22.544 87.342 22.726 87.9393 22.726C88.5366 22.726 89.008 22.544 89.3533 22.18C89.708 21.8067 89.8853 21.2747 89.8853 20.584V16.286H91.4813ZM95.4491 17.588V21.858C95.4491 22.1473 95.5144 22.3573 95.6451 22.488C95.7851 22.6093 96.0184 22.67 96.3451 22.67H97.3251V24H96.0651C95.3464 24 94.7958 23.832 94.4131 23.496C94.0304 23.16 93.8391 22.614 93.8391 21.858V17.588H92.9291V16.286H93.8391V14.368H95.4491V16.286H97.3251V17.588H95.4491ZM101.596 24.126C100.989 24.126 100.443 24.0187 99.9581 23.804C99.4821 23.58 99.1041 23.2813 98.8241 22.908C98.5441 22.5253 98.3948 22.1007 98.3761 21.634H100.028C100.056 21.9607 100.21 22.236 100.49 22.46C100.779 22.6747 101.139 22.782 101.568 22.782C102.016 22.782 102.361 22.698 102.604 22.53C102.856 22.3527 102.982 22.1287 102.982 21.858C102.982 21.5687 102.842 21.354 102.562 21.214C102.291 21.074 101.857 20.92 101.26 20.752C100.681 20.5933 100.21 20.4393 99.8461 20.29C99.4821 20.1407 99.1648 19.912 98.8941 19.604C98.6328 19.296 98.5021 18.89 98.5021 18.386C98.5021 17.9753 98.6234 17.602 98.8661 17.266C99.1088 16.9207 99.4541 16.65 99.9021 16.454C100.359 16.258 100.882 16.16 101.47 16.16C102.347 16.16 103.052 16.384 103.584 16.832C104.125 17.2707 104.415 17.8727 104.452 18.638H102.856C102.828 18.2927 102.688 18.0173 102.436 17.812C102.184 17.6067 101.843 17.504 101.414 17.504C100.994 17.504 100.672 17.5833 100.448 17.742C100.224 17.9007 100.112 18.1107 100.112 18.372C100.112 18.5773 100.187 18.75 100.336 18.89C100.485 19.03 100.667 19.142 100.882 19.226C101.097 19.3007 101.414 19.3987 101.834 19.52C102.394 19.6693 102.851 19.8233 103.206 19.982C103.57 20.1313 103.883 20.3553 104.144 20.654C104.405 20.9527 104.541 21.3493 104.55 21.844C104.55 22.2827 104.429 22.6747 104.186 23.02C103.943 23.3653 103.598 23.636 103.15 23.832C102.711 24.028 102.193 24.126 101.596 24.126Z" fill="#2C2C2C"/>
<path d="M116.4 18.1106L120.222 22.5709C120.284 22.6428 120.361 22.7004 120.447 22.74C120.533 22.7795 120.626 22.8 120.721 22.8C120.815 22.8 120.909 22.7795 120.995 22.74C121.081 22.7004 121.157 22.6428 121.219 22.5709L125.041 18.1106C125.406 17.6848 125.103 17.0272 124.543 17.0272L116.897 17.0272C116.337 17.0272 116.035 17.6848 116.4 18.1106Z" fill="#2C2C2C"/>
</svg>
