<svg width="76" height="38" viewBox="0 0 76 38" fill="none" xmlns="http://www.w3.org/2000/svg">
<rect x="0.5" y="0.5" width="75" height="37" rx="7.5" fill="white" stroke="#E7E7E7"/>
<rect x="40" y="2" width="34" height="34" rx="7" fill="white"/>
<rect x="2" y="2" width="34" height="34" rx="7" fill="#2C2C2C"/>
<g clip-path="url(#clip0_1_1903)">
<path d="M64.4999 19C64.9599 19 65.3374 18.6258 65.2915 18.1683C65.0994 16.2551 64.2516 14.4672 62.8918 13.1078C61.532 11.7483 59.7439 10.9009 57.8307 10.7092C57.3724 10.6633 56.999 11.0408 56.999 11.5008V18.1675C56.999 18.3885 57.0868 18.6005 57.2431 18.7567C57.3994 18.913 57.6113 19.0008 57.8324 19.0008L64.4999 19Z" stroke="#2C2C2C" stroke-width="1.66667" stroke-linecap="round" stroke-linejoin="round"/>
<path d="M64.6752 22.2417C64.145 23.4954 63.3158 24.6002 62.2601 25.4594C61.2043 26.3187 59.9541 26.9062 58.6189 27.1707C57.2836 27.4351 55.9039 27.3685 54.6003 26.9765C53.2967 26.5845 52.109 25.8792 51.141 24.9222C50.173 23.9652 49.4542 22.7856 49.0474 21.4866C48.6406 20.1876 48.5581 18.8087 48.8073 17.4705C49.0565 16.1323 49.6298 14.8755 50.4769 13.81C51.324 12.7445 52.4192 11.9028 53.6668 11.3583" stroke="#2C2C2C" stroke-width="1.66667" stroke-linecap="round" stroke-linejoin="round"/>
</g>
<path d="M19 11.5V26.5" stroke="white" stroke-width="1.66667" stroke-linecap="round" stroke-linejoin="round"/>
<path d="M24.8333 11.5H13.1667C12.2462 11.5 11.5 12.2462 11.5 13.1667V24.8333C11.5 25.7538 12.2462 26.5 13.1667 26.5H24.8333C25.7538 26.5 26.5 25.7538 26.5 24.8333V13.1667C26.5 12.2462 25.7538 11.5 24.8333 11.5Z" stroke="white" stroke-width="1.66667" stroke-linecap="round" stroke-linejoin="round"/>
<path d="M11.5 16.5H26.5" stroke="white" stroke-width="1.66667" stroke-linecap="round" stroke-linejoin="round"/>
<path d="M11.5 21.5H26.5" stroke="white" stroke-width="1.66667" stroke-linecap="round" stroke-linejoin="round"/>
<defs>
<clipPath id="clip0_1_1903">
<rect width="20" height="20" fill="white" transform="translate(47 9)"/>
</clipPath>
</defs>
</svg>
